<?xml version="1.0" encoding="UTF-8"?>
<svg id="Layer_2" xmlns="http://www.w3.org/2000/svg" version="1.1" viewBox="0 0 11.5 21.5">
  <!-- Generator: Adobe Illustrator 29.3.1, SVG Export Plug-In . SVG Version: 2.1.0 Build 151)  -->
  <defs>
    <style>
      .st0 {
        fill: none;
        stroke: #000;
        stroke-linecap: round;
        stroke-linejoin: round;
        stroke-width: 1.5px;
      }
    </style>
  </defs>
  <g id="Layer_1-2">
    <path class="st0" d="M5.8,3.3c-1.7,0-3,1.3-3,3s.2,1.1.4,1.6c-1.4.3-2.4,1.5-2.4,2.9s1,2.7,2.4,2.9M5.8,3.3c0-1.4,1.1-2.5,2.5-2.5s2.5,1.1,2.5,2.5v1.5M5.8,3.3c0,.8.4,1.5,1,2M3.2,13.7c-.3.4-.4,1-.4,1.6,0,1.7,1.3,3,3,3,0,1.4,1.1,2.5,2.5,2.5s2.5-1.1,2.5-2.5v-1.5M3.2,13.7c.4-.6.9-1,1.6-1.3"/>
  </g>
</svg>