<?xml version="1.0" encoding="UTF-8"?>
<svg id="Layer_2" data-name="Layer 2" xmlns="http://www.w3.org/2000/svg" viewBox="0 0 20 20">
  <defs>
    <style>
      .cls-1 {
        fill-rule: evenodd;
      }
    </style>
  </defs>
  <g id="Layer_1-2" data-name="Layer 1">
    <path class="cls-1" d="M4.09,4.02c-.07.26.13.51.4.54l2.47.34c.28.04.54-.16.64-.42.22-.63.82-1.65,2.36-1.65,1.62,0,1.82,1.54,1.65,3.17-6.59,0-7.6,3.5-7.6,5s.51,4,3.55,4c2.43,0,4.05-1.33,4.56-2l1.2,1.18c.18.18.47.2.67.04l1.83-1.44c.2-.16.25-.44.11-.65l-.37-.59c-.26-.35-.41-.77-.41-1.2v-3.83c0-.14,0-.3,0-.47.04-2.16.1-6.03-5.07-6.03-4.02,0-5.6,2.44-5.99,4.02ZM11.6,8c.17,1.5-.1,4.5-2.53,4.5s-2.03-5,2.53-4.5ZM16.03,16.55c-6.53,3.83-11.85.55-14.9-1.33l-.21-.13c-.3-.19-.7-.07-.86.23-.12.23-.07.5.12.67,1.09.97,4.82,4,8.55,4,4.77,0,7.3-1.87,8.1-2.59.18-.16.21-.42.1-.63-.17-.32-.59-.43-.9-.24ZM16.05,15.61c.63-.13,1.66-.28,2.46-.14-.07.53-.28,1.59-.63,2.28-.12.24-.07.56.15.69.15.09.35.08.48-.05.69-.69,1.63-2.08,1.47-3.61-.03-.34-.29-.6-.62-.67-.98-.21-2.54-.22-3.73.77-.15.13-.18.35-.08.52.1.17.3.25.49.21Z"/>
  </g>
</svg>