<?xml version="1.0" encoding="UTF-8"?>
<svg id="Layer_1" xmlns="http://www.w3.org/2000/svg" version="1.1" xmlns:xlink="http://www.w3.org/1999/xlink" viewBox="0 0 24 24">
  <!-- Generator: Adobe Illustrator 29.3.1, SVG Export Plug-In . SVG Version: 2.1.0 Build 151)  -->
  <defs>
    <style>
      .st0 {
        fill: none;
        stroke: #000;
        stroke-linejoin: round;
        stroke-width: 1.5px;
      }
    </style>
  </defs>
  <path class="st0" d="M12,5.8c0-2,1.5-4,3.5-4,0,2-1.5,4-3.5,4Z"/>
  <path class="st0" d="M12.5,8.1c-.5,0-.9-.2-1.4-.3-.6-.2-1.2-.5-2.2-.5-1.9,0-4.9,1.5-4.9,5.5s3.1,9.5,5.1,9.5,1.3-.3,1.8-.5c.5-.2,1-.5,1.5-.5s1,.2,1.5.5c.6.3,1.2.5,1.8.5,1.4,0,3.1-2.4,4.1-5.3-1.6-.7-2.7-2.3-2.7-4.2s.9-2.7,2.2-3.5c-1-1.5-2.5-2-3.6-2s-1.7.3-2.2.5c-.4.2-.7.3-1.2.3Z"/>
</svg>