<?xml version="1.0" encoding="UTF-8"?>
<svg id="Layer_2" data-name="Layer 2" xmlns="http://www.w3.org/2000/svg" viewBox="0 0 360 241.69">
  <defs>
    <style>
      .cls-1 {
        fill: #3dc5e9;
      }

      .cls-2 {
        fill: #6acef2;
      }

      .cls-3 {
        fill: #43c6e9;
      }

      .cls-4 {
        fill: #e8e7e7;
      }

      .cls-5 {
        fill: #1ba0c9;
      }

      .cls-6 {
        fill: #69cef3;
      }

      .cls-7 {
        fill: #0a1920;
      }

      .cls-8 {
        fill: #1b9ec7;
      }

      .cls-9 {
        fill: #93d8ec;
      }

      .cls-10 {
        fill: #105580;
      }

      .cls-11 {
        fill: #2573af;
      }

      .cls-12 {
        fill: #40b0dc;
      }

      .cls-13 {
        fill: #042c41;
      }

      .cls-14 {
        fill: #46c6e9;
      }

      .cls-15 {
        fill: #bdc3c7;
      }

      .cls-16 {
        fill: #2573ae;
      }
    </style>
  </defs>
  <g id="Layer_1-2" data-name="Layer 1">
    <g>
      <g>
        <g>
          <g>
            <polygon class="cls-2" points="134.38 56.88 134.38 90.26 179.48 90.26 179.48 45.13 150.63 45.13 134.38 56.88"/>
            <rect class="cls-14" x="134.36" y="90.26" width="45.13" height="45.13"/>
          </g>
          <rect class="cls-6" x="134.36" y="135.39" width="45.13" height="45.13"/>
        </g>
        <rect class="cls-9" x="134.36" y="180.52" width="45.13" height="45.13"/>
      </g>
      <g>
        <g>
          <g>
            <rect class="cls-1" x="179.48" y="45.13" width="45.13" height="45.13"/>
            <rect class="cls-6" x="179.48" y="90.26" width="45.13" height="45.13"/>
          </g>
          <rect class="cls-5" x="179.48" y="135.39" width="45.13" height="45.13"/>
        </g>
        <rect class="cls-3" x="179.48" y="180.52" width="45.13" height="45.13"/>
      </g>
      <g>
        <g>
          <g>
            <rect class="cls-12" x="224.61" y="45.13" width="45.13" height="45.13"/>
            <rect class="cls-5" x="224.61" y="90.26" width="45.13" height="45.13"/>
          </g>
          <rect class="cls-16" x="224.61" y="135.39" width="45.13" height="45.13"/>
        </g>
        <rect class="cls-8" x="224.61" y="180.52" width="45.13" height="45.13"/>
      </g>
      <g>
        <rect class="cls-11" x="314.87" y="45.13" width="45.13" height="45.13"/>
        <rect class="cls-13" x="314.87" y="90.26" width="45.13" height="45.13"/>
      </g>
      <g>
        <rect class="cls-10" x="269.74" y="135.39" width="45.13" height="45.13"/>
        <g>
          <rect class="cls-11" x="269.74" y="90.26" width="45.13" height="45.13"/>
          <g>
            <rect class="cls-7" x="269.74" y="45.13" width="45.13" height="45.13"/>
            <rect class="cls-10" x="269.74" width="45.13" height="45.13"/>
          </g>
        </g>
      </g>
      <polygon class="cls-9" points="134.4 241.69 161.02 222.36 134.4 222.36 134.4 241.69"/>
      <polygon class="cls-4" points="134.38 89.26 134.38 56.88 118.15 45.14 0 45.14 0 223.69 109.51 223.69 134.4 241.69 134.4 89.26 134.38 89.26"/>
      <g>
        <path class="cls-15" d="M74.77,72.21H23.55c-2.02,0-3.66-1.64-3.66-3.66s1.64-3.66,3.66-3.66h51.23c2.02,0,3.66,1.64,3.66,3.66s-1.64,3.66-3.66,3.66Z"/>
        <path class="cls-15" d="M100.39,72.21h-10.98c-2.02,0-3.66-1.64-3.66-3.66s1.64-3.66,3.66-3.66h10.98c2.02,0,3.66,1.64,3.66,3.66s-1.64,3.66-3.66,3.66Z"/>
        <path class="cls-15" d="M100.39,86.85h-51.23c-2.02,0-3.66-1.64-3.66-3.66s1.64-3.66,3.66-3.66h51.23c2.02,0,3.66,1.64,3.66,3.66s-1.64,3.66-3.66,3.66Z"/>
        <path class="cls-15" d="M34.52,86.85h-10.98c-2.02,0-3.66-1.64-3.66-3.66s1.64-3.66,3.66-3.66h10.98c2.02,0,3.66,1.64,3.66,3.66s-1.64,3.66-3.66,3.66Z"/>
        <path class="cls-15" d="M74.77,101.48H23.55c-2.02,0-3.66-1.64-3.66-3.66s1.64-3.66,3.66-3.66h51.23c2.02,0,3.66,1.64,3.66,3.66s-1.64,3.66-3.66,3.66Z"/>
        <path class="cls-15" d="M100.39,101.48h-10.98c-2.02,0-3.66-1.64-3.66-3.66s1.64-3.66,3.66-3.66h10.98c2.02,0,3.66,1.64,3.66,3.66s-1.64,3.66-3.66,3.66Z"/>
        <path class="cls-15" d="M100.39,116.12h-51.23c-2.02,0-3.66-1.64-3.66-3.66s1.64-3.66,3.66-3.66h51.23c2.02,0,3.66,1.64,3.66,3.66s-1.64,3.66-3.66,3.66Z"/>
        <path class="cls-15" d="M34.52,116.12h-10.98c-2.02,0-3.66-1.64-3.66-3.66s1.64-3.66,3.66-3.66h10.98c2.02,0,3.66,1.64,3.66,3.66s-1.64,3.66-3.66,3.66Z"/>
        <path class="cls-15" d="M74.77,130.76H23.55c-2.02,0-3.66-1.64-3.66-3.66s1.64-3.66,3.66-3.66h51.23c2.02,0,3.66,1.64,3.66,3.66s-1.64,3.66-3.66,3.66Z"/>
        <path class="cls-15" d="M100.39,130.76h-10.98c-2.02,0-3.66-1.64-3.66-3.66s1.64-3.66,3.66-3.66h10.98c2.02,0,3.66,1.64,3.66,3.66s-1.64,3.66-3.66,3.66Z"/>
        <path class="cls-15" d="M100.39,145.39h-51.23c-2.02,0-3.66-1.64-3.66-3.66s1.64-3.66,3.66-3.66h51.23c2.02,0,3.66,1.64,3.66,3.66s-1.64,3.66-3.66,3.66Z"/>
        <path class="cls-15" d="M34.52,145.39h-10.98c-2.02,0-3.66-1.64-3.66-3.66s1.64-3.66,3.66-3.66h10.98c2.02,0,3.66,1.64,3.66,3.66s-1.64,3.66-3.66,3.66Z"/>
        <path class="cls-15" d="M74.77,160.03H23.55c-2.02,0-3.66-1.64-3.66-3.66s1.64-3.66,3.66-3.66h51.23c2.02,0,3.66,1.64,3.66,3.66s-1.64,3.66-3.66,3.66Z"/>
        <path class="cls-15" d="M100.39,160.03h-10.98c-2.02,0-3.66-1.64-3.66-3.66s1.64-3.66,3.66-3.66h10.98c2.02,0,3.66,1.64,3.66,3.66s-1.64,3.66-3.66,3.66Z"/>
        <path class="cls-15" d="M100.39,174.67h-51.23c-2.02,0-3.66-1.64-3.66-3.66s1.64-3.66,3.66-3.66h51.23c2.02,0,3.66,1.64,3.66,3.66s-1.64,3.66-3.66,3.66Z"/>
        <path class="cls-15" d="M34.52,174.67h-10.98c-2.02,0-3.66-1.64-3.66-3.66s1.64-3.66,3.66-3.66h10.98c2.02,0,3.66,1.64,3.66,3.66s-1.64,3.66-3.66,3.66Z"/>
        <path class="cls-15" d="M74.77,189.3H23.55c-2.02,0-3.66-1.64-3.66-3.66s1.64-3.66,3.66-3.66h51.23c2.02,0,3.66,1.64,3.66,3.66s-1.64,3.66-3.66,3.66Z"/>
        <path class="cls-15" d="M100.39,189.3h-10.98c-2.02,0-3.66-1.64-3.66-3.66s1.64-3.66,3.66-3.66h10.98c2.02,0,3.66,1.64,3.66,3.66s-1.64,3.66-3.66,3.66Z"/>
        <path class="cls-15" d="M100.39,203.94h-51.23c-2.02,0-3.66-1.64-3.66-3.66s1.64-3.66,3.66-3.66h51.23c2.02,0,3.66,1.64,3.66,3.66s-1.64,3.66-3.66,3.66Z"/>
      </g>
    </g>
  </g>
</svg>