<?xml version="1.0" encoding="UTF-8"?>
<svg id="Layer_1" xmlns="http://www.w3.org/2000/svg" version="1.1" viewBox="0 0 24 24">
  <!-- Generator: Adobe Illustrator 29.3.1, SVG Export Plug-In . SVG Version: 2.1.0 Build 151)  -->
  <defs>
    <style>
      .st0 {
        fill: none;
        stroke: #000;
        stroke-linecap: round;
        stroke-linejoin: round;
        stroke-width: 1.5px;
      }
    </style>
  </defs>
  <path class="st0" d="M21,15c0-.6-.4-1-1-1h-1c-.6,0-1,.4-1,1v3c0,.6.4,1,1,1h1c.6,0,1-.4,1-1M7,14h1c1.1,0,2,.9,2,2v1c0,1.1-.9,2-2,2h-1v-5ZM13.5,14h1c.6,0,1,.4,1,1v3c0,.6-.4,1-1,1h-1c-.6,0-1-.4-1-1v-3c0-.6.4-1,1-1Z"/>
  <path class="st0" d="M19,22H5c-1.1,0-2-.9-2-2V4c0-1.1.9-2,2-2h7l7,7v2M18.5,9h-4.5c-1.1,0-2-.9-2-2V2.5"/>
</svg>