<?xml version="1.0" encoding="UTF-8"?>
<svg id="Layer_1" xmlns="http://www.w3.org/2000/svg" version="1.1" viewBox="0 0 24 24">
  <!-- Generator: Adobe Illustrator 29.3.1, SVG Export Plug-In . SVG Version: 2.1.0 Build 151)  -->
  <defs>
    <style>
      .st0 {
        fill: none;
        stroke: #000;
        stroke-linejoin: round;
        stroke-width: 1.5px;
      }
    </style>
  </defs>
  <path class="st0" d="M6.2,10.3c-1,0-1.2.2-1.2,1.1v1.7c0,.9.2,1.1,1.2,1.1h2.4v6.7c0,.9.2,1.1,1.2,1.1h2.4c1,0,1.2-.2,1.2-1.1v-6.7h2.7c.7,0,.9-.1,1.1-.8l.5-1.7c.3-1.1.1-1.4-1.1-1.4h-3.2v-2.8c0-.6.5-1.1,1.2-1.1h3.4c1,0,1.2-.2,1.2-1.1v-2.2c0-.9-.2-1.1-1.2-1.1h-3.4c-3.3,0-5.9,2.5-5.9,5.6v2.8h-2.4Z"/>
</svg>