<?xml version="1.0" encoding="UTF-8"?>
<svg id="Layer_1" xmlns="http://www.w3.org/2000/svg" version="1.1" viewBox="0 0 800 800">
  <!-- Generator: Adobe Illustrator 29.3.1, SVG Export Plug-In . SVG Version: 2.1.0 Build 151)  -->
  <path d="M400,66.7c184.1,0,333.3,149.2,333.3,333.3s-149.2,333.3-333.3,333.3S66.7,584.1,66.7,400s10.5-95.1,29.3-136.9c15.5-31.3,41.1-62.5,61.7-73.1-21.8,42.8-32.4,84.7-34.7,112.8,15.1-50,43.8-91.9,84-121.5,68.9-50.6,161.6-52.9,198.5-20.7-68.5,23.6-143.2,118.3-126.8,229.2,2.7,18.3,8.2,36.1,16.3,52.7-12.8-33.7-13.9-81.1,6.7-111.9,23.1-34.3,55.9-41.6,73.5-37.9-6.9-1.5-22.3,27.9-24.5,33-5.8,13.1-8.6,27.3-8.4,41.7.5,29.9,12.8,58.5,34.3,79.3,64.1,62.4,167.4,37.8,213.7-33.4,31.8-49,35.6-132.3-5.2-198.4-10.2-16.1-22.3-30.9-36.1-44-61.7-58.9-149.3-85.7-232.7-73.5-36.9,5.9-68.2,16.5-94.1,31.9,36.2-36.1,108-62.7,177.7-62.7ZM229.2,256.8c-75.1,26-116.7,105.7-86,215.3,31.6,112.1,132.1,190.7,248.5,194.4h8.3c140.9.1,257.4-109.4,266.2-250l.3-7.1c-4.3,11.6-9.4,22.5-15.4,32.7l-4.7,7.6c-70.1,108-222.7,135.8-316,44.9-12.7-12.3-23.5-26.4-32.1-41.9l-3.5-6.7c-57.9-12.9-86.1-44.2-84.8-93.9.9-33,7.7-65.3,19.2-95.3h0Z"/>
</svg>