<?xml version="1.0" encoding="UTF-8"?>
<svg id="Layer_2" data-name="Layer 2" xmlns="http://www.w3.org/2000/svg" viewBox="0 0 16.23 14.47">
  <g id="Layer_2-2" data-name="Layer 2">
    <g>
      <path d="M15.72,9.7h.01s-5.68-.01-5.68-.01c-.28,0-.51.21-.51.47s.22.46.5.46h4.49v2.24c-.12-.1-.28-.17-.46-.2.04-.15.06-.31.06-.47,0-.42-.13-.77-.4-1.04-.27-.28-.62-.42-1.07-.42-.37,0-.67.1-.9.31-.23.21-.35.49-.35.85,0,.28.13.64.51.64.28,0,.51-.23.51-.51,0-.11.02-.2.08-.26.05-.06.11-.09.2-.09.1,0,.17.04.22.13.06.09.09.23.09.39,0,.26-.08.48-.23.66-.15.18-.37.26-.68.26-.33,0-.58-.1-.78-.32-.2-.22-.3-.54-.3-.96v-.13c0-.24-.17-.43-.39-.49-.06-.02-.11-.02-.17-.02-.29.02-.52.26-.51.55-.02.79.19,1.39.61,1.78.4.38.93.57,1.57.57.54,0,1.01-.17,1.38-.49h.26c.39,0,.63.17.72.46.08.24.3.41.57.41.32,0,.59-.27.58-.6v-3.24h.08c.28,0,.5-.21.5-.46s-.25-.47-.51-.47Z"/>
      <path d="M10.1,3.39h.78c.69,0,1.25.56,1.25,1.25v.16l-.05-.04c-.31-.28-.78-.26-1.06.05-.28.31-.25.78.05,1.06l1.31,1.19c.14.13.32.19.5.19s.36-.06.5-.19l1.34-1.19c.31-.27.34-.75.06-1.06s-.75-.34-1.06-.06l-.1.09h0v-.2c0-1.52-1.23-2.75-2.75-2.75h-.78c-.41,0-.75.34-.75.75s.34.75.75.75Z"/>
      <path d="M6.18,11.33h-.78c-.69,0-1.25-.56-1.25-1.25v-.16l.05.04c.31.28.78.25,1.06-.05.28-.31.26-.78-.05-1.06l-1.31-1.19c-.28-.26-.72-.26-1,0l-1.34,1.19c-.31.27-.34.75-.06,1.06.27.31.75.34,1.06.06l.1-.09h0v.2c0,1.52,1.23,2.75,2.75,2.75h.78c.41,0,.75-.34.75-.75s-.34-.75-.75-.75Z"/>
      <path d="M3.4,4.26c.27,0,.52-.06.74-.18.18-.1.34-.25.46-.44.14.1.27.23.38.4.13.19.25.44.35.72v.02s.69.61.69.61V.91h.77l-.69-.91H0l.69.91h4.31v1.98c0,.08,0,.15,0,.23-.06-.1-.13-.19-.2-.29v-.06c0-.32-.07-.63-.21-.9-.13-.28-.31-.49-.55-.67-.32-.23-.67-.32-1.04-.27-.26.03-.49.15-.65.33-.14.16-.2.34-.2.54,0,.13.04.27.11.41.06.11.16.21.29.3.22.14.52.16.79.02.12-.06.21-.15.28-.26.07-.12.1-.24.1-.37,0-.05,0-.11-.01-.16.09.03.15.07.21.14.09.11.13.24.13.41,0,.14-.04.27-.11.39-.08.11-.18.2-.32.28-.14.07-.31.1-.49.1-.35,0-.67-.15-.96-.43s-.52-.54-.83-1.22l-.02-.04-.69-.18.07.18c.4,1.1.72,1.53,1.17,2.07.45.54.97.82,1.54.82Z"/>
    </g>
  </g>
</svg>