<?xml version="1.0" encoding="UTF-8"?>
<svg id="Layer_1" xmlns="http://www.w3.org/2000/svg" version="1.1" xmlns:xlink="http://www.w3.org/1999/xlink" viewBox="0 0 24 24">
  <!-- Generator: Adobe Illustrator 29.3.1, SVG Export Plug-In . SVG Version: 2.1.0 Build 151)  -->
  <defs>
    <style>
      .st0 {
        fill: none;
        stroke: #000;
        stroke-linecap: round;
        stroke-linejoin: round;
        stroke-width: 1.5px;
      }
    </style>
  </defs>
  <path class="st0" d="M5.5,12.8l.9.5c.3.2.6.5.6.9v4.8c0,.4-.2.7-.6.9l-.9.5c-.3.2-.7.1-1,0-.8-.7-2.5-2.2-2.5-3.7s1.7-3,2.5-3.7c.3-.2.7-.2,1,0Z"/>
  <path class="st0" d="M4,13v-1.5c0-4.4,3.6-8,8-8s8,3.6,8,8v1.5"/>
  <path class="st0" d="M19.5,12.8c-.3-.2-.7-.2-1,0l-.9.5c-.3.2-.6.5-.6.9v4.8c0,.4.2.7.6.9l.9.5c.3.2.7.1,1,0,.8-.7,2.5-2.2,2.5-3.7s-1.7-3-2.5-3.7Z"/>
</svg>