<?xml version="1.0" encoding="UTF-8"?>
<svg id="Layer_1" xmlns="http://www.w3.org/2000/svg" version="1.1" viewBox="0 0 24 24">
  <!-- Generator: Adobe Illustrator 29.3.1, SVG Export Plug-In . SVG Version: 2.1.0 Build 151)  -->
  <defs>
    <style>
      .st0, .st1, .st2 {
        fill: none;
        stroke: #000;
        stroke-width: 1.5px;
      }

      .st1, .st2 {
        stroke-linejoin: round;
      }

      .st2 {
        stroke-linecap: round;
      }
    </style>
  </defs>
  <path class="st1" d="M2.5,12c0-4.5,0-6.7,1.4-8.1,1.4-1.4,3.6-1.4,8.1-1.4s6.7,0,8.1,1.4c1.4,1.4,1.4,3.6,1.4,8.1s0,6.7-1.4,8.1c-1.4,1.4-3.6,1.4-8.1,1.4s-6.7,0-8.1-1.4c-1.4-1.4-1.4-3.6-1.4-8.1Z"/>
  <path class="st0" d="M16.5,12c0,2.5-2,4.5-4.5,4.5s-4.5-2-4.5-4.5,2-4.5,4.5-4.5,4.5,2,4.5,4.5Z"/>
  <path class="st2" d="M17.5,6.5h0"/>
</svg>