<?xml version="1.0" encoding="UTF-8"?>
<svg id="Layer_1" xmlns="http://www.w3.org/2000/svg" version="1.1" viewBox="0 0 24 24">
  <!-- Generator: Adobe Illustrator 29.3.1, SVG Export Plug-In . SVG Version: 2.1.0 Build 151)  -->
  <defs>
    <style>
      .st0 {
        fill: none;
        stroke: #000;
        stroke-linecap: round;
        stroke-linejoin: round;
        stroke-width: 1.5px;
      }
    </style>
  </defs>
  <path class="st0" d="M9.1,10.7l.2-.2c2-2,5.2-2,7.2,0,2,2,2,5.2,0,7.2l-2.9,2.9c-2,2-5.2,2-7.2,0-2-2-2-5.2,0-7.2l.5-.5"/>
  <path class="st0" d="M17.1,11.1l.5-.5c2-2,2-5.2,0-7.2-2-2-5.2-2-7.2,0l-2.9,2.9c-2,2-2,5.2,0,7.2,2,2,5.2,2,7.2,0l.2-.2"/>
</svg>