<?xml version="1.0" encoding="UTF-8"?>
<svg id="Layer_1" xmlns="http://www.w3.org/2000/svg" version="1.1" viewBox="0 0 128 128">
  <!-- Generator: Adobe Illustrator 29.3.1, SVG Export Plug-In . SVG Version: 2.1.0 Build 151)  -->
  <defs>
    <style>
      .st0 {
        stroke-miterlimit: 21.3;
      }

      .st0, .st1 {
        fill: none;
        stroke: #000;
        stroke-width: 8px;
      }

      .st1 {
        stroke-linecap: round;
        stroke-linejoin: round;
      }
    </style>
  </defs>
  <path class="st0" d="M13.3,64c0-23.9,0-35.8,7.4-43.2,7.4-7.4,19.4-7.4,43.2-7.4s35.8,0,43.2,7.4c7.4,7.4,7.4,19.4,7.4,43.2s0,35.8-7.4,43.2c-7.4,7.4-19.4,7.4-43.2,7.4s-35.8,0-43.2-7.4c-7.4-7.4-7.4-19.4-7.4-43.2Z"/>
  <path class="st1" d="M85.3,64h-42.7M85.3,64c0-3.7-10.6-10.7-13.3-13.3M85.3,64c0,3.7-10.6,10.7-13.3,13.3"/>
</svg>