<?xml version="1.0" encoding="UTF-8"?>
<svg id="Layer_1" xmlns="http://www.w3.org/2000/svg" version="1.1" xmlns:xlink="http://www.w3.org/1999/xlink" viewBox="0 0 24 24">
  <!-- Generator: Adobe Illustrator 29.3.1, SVG Export Plug-In . SVG Version: 2.1.0 Build 151)  -->
  <defs>
    <style>
      .st0 {
        fill-rule: evenodd;
      }
    </style>
  </defs>
  <path class="st0" d="M3,5c0-.6.4-1,1-1h16c.6,0,1,.4,1,1s-.4,1-1,1H4c-.6,0-1-.4-1-1Z"/>
  <path class="st0" d="M3,12c0-.6.4-1,1-1h16c.6,0,1,.4,1,1s-.4,1-1,1H4c-.6,0-1-.4-1-1Z"/>
  <path class="st0" d="M3,19c0-.6.4-1,1-1h16c.6,0,1,.4,1,1s-.4,1-1,1H4c-.6,0-1-.4-1-1Z"/>
</svg>