<?xml version="1.0" encoding="UTF-8"?>
<svg id="Layer_1" xmlns="http://www.w3.org/2000/svg" version="1.1" viewBox="0 0 24 24">
  <!-- Generator: Adobe Illustrator 29.3.1, SVG Export Plug-In . SVG Version: 2.1.0 Build 151)  -->
  <defs>
    <style>
      .st0 {
        fill: none;
        stroke: #000;
        stroke-linecap: round;
        stroke-linejoin: round;
        stroke-width: 1.5px;
      }
    </style>
  </defs>
  <path class="st0" d="M7,7v4c0,2.8,2.2,5,5,5s2.2-.4,3-1M8,4c.9-1.2,2.4-2,4-2,2.8,0,5,2.2,5,5v4c0,.6-.1,1.2-.3,1.7"/>
  <path class="st0" d="M20,11c0,1.5-.3,2.8-1,4M12,19c-4.4,0-8-3.6-8-8M12,19v3M12,19c1.9,0,3.6-.7,5-1.8M12,22h2.5M12,22h-2.5"/>
  <path class="st0" d="M2,2l20,20"/>
</svg>