<?xml version="1.0" encoding="UTF-8"?>
<svg id="Layer_2" xmlns="http://www.w3.org/2000/svg" version="1.1" viewBox="0 0 22 22.3">
  <!-- Generator: Adobe Illustrator 29.3.1, SVG Export Plug-In . SVG Version: 2.1.0 Build 151)  -->
  <defs>
    <style>
      .st0 {
        stroke-miterlimit: 10;
      }

      .st0, .st1 {
        fill: none;
        stroke: #000;
        stroke-width: 1.5px;
      }

      .st1 {
        stroke-linecap: round;
        stroke-linejoin: round;
      }
    </style>
  </defs>
  <g id="Layer_1-2">
    <g>
      <path class="st0" d="M20.4,3.2H2c-1.3,0-1.3.8-1.3.8v13.6c0,3.7,3.9,4,3.9,4h12.2c4.5,0,4.4-3.7,4.4-3.7V4.2c0-1.2-.9-1-.9-1Z"/>
      <g>
        <g>
          <path class="st1" d="M9.8,7.2h-4v4h4v-4Z"/>
          <path class="st1" d="M16.2,7.2h-4v4h4v-4Z"/>
        </g>
        <g>
          <path class="st1" d="M16.2,13.6h-4v4h4v-4Z"/>
          <path class="st1" d="M9.8,13.6h-4v4h4v-4Z"/>
        </g>
      </g>
      <path class="st1" d="M5.6,4.3V1.3c0-.3.2-.6.6-.6h9.6c.3,0,.6.2.6.6v3"/>
    </g>
  </g>
</svg>