<?xml version="1.0" encoding="UTF-8"?>
<svg id="Layer_1" xmlns="http://www.w3.org/2000/svg" version="1.1" viewBox="0 0 24 24">
  <!-- Generator: Adobe Illustrator 29.3.1, SVG Export Plug-In . SVG Version: 2.1.0 Build 151)  -->
  <defs>
    <style>
      .st0, .st1 {
        fill: none;
        stroke: #000;
        stroke-linecap: round;
        stroke-width: 1.5px;
      }

      .st1 {
        stroke-linejoin: round;
      }
    </style>
  </defs>
  <path class="st1" d="M7.5,3.5c1.3-.9,2.8-1.5,4.5-1.5,4.1,0,7.5,3.4,7.5,7.5v2.2c0,.5.2,1,.6,1.4l1.4,1.4v1.4c0,.4-.2.7-.6.9,0,0-.2,0-.2.1M5.5,5.8c-.6,1.1-1,2.4-1,3.7v2.2c0,.5-.2,1-.6,1.4l-1.4,1.4v1.4c0,.4.2.7.6.9,1.6.7,4.5,1.7,8.9,1.7s4-.3,5.5-.6"/>
  <path class="st0" d="M21.5,21.5L2.5,2.5"/>
  <path class="st0" d="M22,22L2,2"/>
  <path class="st1" d="M9,21c.8.6,1.8,1,3,1s2.2-.4,3-1"/>
</svg>