<?xml version="1.0" encoding="UTF-8"?>
<svg id="Layer_1" xmlns="http://www.w3.org/2000/svg" version="1.1" viewBox="0 0 24 24">
  <!-- Generator: Adobe Illustrator 29.3.1, SVG Export Plug-In . SVG Version: 2.1.0 Build 151)  -->
  <defs>
    <style>
      .st0 {
        fill: none;
        stroke: #000;
        stroke-linecap: round;
        stroke-linejoin: round;
        stroke-width: 1.5px;
      }
    </style>
  </defs>
  <path class="st0" d="M3.9,13.1c.4-.4.6-.9.6-1.4v-2.2c0-4.1,3.4-7.5,7.5-7.5s7.5,3.4,7.5,7.5v2.2c0,.5.2,1,.6,1.4l1.4,1.4v1.4c0,.4-.2.7-.6.9-1.6.7-4.5,1.7-8.9,1.7s-7.4-1-8.9-1.7c-.3-.2-.6-.5-.6-.9v-1.4l1.4-1.4Z"/>
  <path class="st0" d="M9,21c.8.6,1.8,1,3,1s2.2-.4,3-1"/>
</svg>