<svg xmlns="http://www.w3.org/2000/svg" viewBox="0 0 360 360"><defs><style>.cls-1{fill:#f3f6f7;}.cls-2{fill:#6c7595;}.cls-3{fill:#fff;}.cls-4{fill:#c8cbcf;}</style></defs><g id="Layer_2" data-name="Layer 2"><g id="Layer_1-2" data-name="Layer 1"><path class="cls-1" d="M339.83,360H20.17A20.17,20.17,0,0,1,0,339.83V74.48H360V339.83A20.17,20.17,0,0,1,339.83,360Z"/><path class="cls-2" d="M360,74.48H0V20.17A20.17,20.17,0,0,1,20.17,0H339.83A20.17,20.17,0,0,1,360,20.17Z"/><rect class="cls-3" x="24.83" y="24.83" width="24.83" height="24.83"/><rect class="cls-3" x="74.48" y="24.83" width="24.83" height="24.83"/><rect class="cls-4" x="177.91" y="112.19" width="12.15" height="195.82"/><rect class="cls-2" x="29.28" y="113.6" width="127.57" height="195.34"/><path class="cls-4" d="M288.05,126.87H220.39a4.84,4.84,0,0,1,0-9.67h67.66a4.84,4.84,0,0,1,0,9.67Z"/><path class="cls-4" d="M321.88,126.87h-14.5a4.84,4.84,0,0,1,0-9.67h14.5a4.84,4.84,0,0,1,0,9.67Z"/><path class="cls-4" d="M321.88,146.2H254.22a4.84,4.84,0,0,1,0-9.67h67.66a4.84,4.84,0,0,1,0,9.67Z"/><path class="cls-4" d="M234.89,146.2h-14.5a4.84,4.84,0,0,1,0-9.67h14.5a4.84,4.84,0,0,1,0,9.67Z"/><path class="cls-4" d="M288.05,165.53H220.39a4.84,4.84,0,0,1,0-9.67h67.66a4.84,4.84,0,0,1,0,9.67Z"/><path class="cls-4" d="M321.88,165.53h-14.5a4.84,4.84,0,0,1,0-9.67h14.5a4.84,4.84,0,0,1,0,9.67Z"/><path class="cls-4" d="M321.88,184.86H254.22a4.84,4.84,0,0,1,0-9.67h67.66a4.84,4.84,0,0,1,0,9.67Z"/><path class="cls-4" d="M234.89,184.86h-14.5a4.84,4.84,0,0,1,0-9.67h14.5a4.84,4.84,0,0,1,0,9.67Z"/><path class="cls-4" d="M288.05,204.19H220.39a4.83,4.83,0,0,1,0-9.66h67.66a4.83,4.83,0,0,1,0,9.66Z"/><path class="cls-4" d="M321.88,204.19h-14.5a4.83,4.83,0,1,1,0-9.66h14.5a4.83,4.83,0,0,1,0,9.66Z"/><path class="cls-4" d="M321.88,223.52H254.22a4.83,4.83,0,1,1,0-9.66h67.66a4.83,4.83,0,0,1,0,9.66Z"/><path class="cls-4" d="M234.89,223.52h-14.5a4.83,4.83,0,1,1,0-9.66h14.5a4.83,4.83,0,1,1,0,9.66Z"/><path class="cls-4" d="M288.05,242.85H220.39a4.83,4.83,0,0,1,0-9.66h67.66a4.83,4.83,0,0,1,0,9.66Z"/><path class="cls-4" d="M321.88,242.85h-14.5a4.83,4.83,0,1,1,0-9.66h14.5a4.83,4.83,0,0,1,0,9.66Z"/><path class="cls-4" d="M321.88,262.18H254.22a4.83,4.83,0,0,1,0-9.66h67.66a4.83,4.83,0,0,1,0,9.66Z"/><path class="cls-4" d="M234.89,262.18h-14.5a4.83,4.83,0,0,1,0-9.66h14.5a4.83,4.83,0,0,1,0,9.66Z"/><path class="cls-4" d="M288.05,281.51H220.39a4.83,4.83,0,0,1,0-9.66h67.66a4.83,4.83,0,0,1,0,9.66Z"/><path class="cls-4" d="M321.88,281.51h-14.5a4.83,4.83,0,0,1,0-9.66h14.5a4.83,4.83,0,0,1,0,9.66Z"/><path class="cls-4" d="M321.88,300.84H254.22a4.83,4.83,0,0,1,0-9.66h67.66a4.83,4.83,0,0,1,0,9.66Z"/><rect class="cls-3" x="122.54" y="25.83" width="24.83" height="24.83"/><path class="cls-3" d="M43.7,275.85a5.34,5.34,0,0,1-3.78-9.12L61.3,245.35a5.35,5.35,0,0,1,7.56,7.56L47.48,274.29A5.33,5.33,0,0,1,43.7,275.85Zm42.75,0a5.32,5.32,0,0,1-3.77-1.56L61.3,252.91a5.35,5.35,0,0,1,7.56-7.56l21.37,21.38a5.34,5.34,0,0,1-3.78,9.12ZM75.77,265.16A5.34,5.34,0,0,1,72,256l21.37-21.38a5.35,5.35,0,0,1,7.56,7.56L79.54,263.6A5.32,5.32,0,0,1,75.77,265.16Zm42.75,0a5.33,5.33,0,0,1-3.78-1.56L93.36,242.22a5.35,5.35,0,0,1,7.56-7.56L122.3,256a5.34,5.34,0,0,1-3.78,9.12Zm26.6-26.72H134.68a5.47,5.47,0,0,1-5.47-5.46V222.53a5.46,5.46,0,0,1,5.47-5.46h10.44a5.45,5.45,0,0,1,5.46,5.46V233A5.46,5.46,0,0,1,145.12,238.44Z"/></g></g></svg>