<?xml version="1.0" encoding="UTF-8"?>
<svg id="Layer_2" data-name="Layer 2" xmlns="http://www.w3.org/2000/svg" viewBox="0 0 19.5 21.5">
  <defs>
    <style>
      .cls-1 {
        fill: none;
        stroke: #000;
        stroke-linecap: round;
        stroke-linejoin: round;
        stroke-width: 1.5px;
      }
    </style>
  </defs>
  <g id="Layer_1-2" data-name="Layer 1">
    <path class="cls-1" d="M16.75,20.75H2.75c-1.1,0-2-.9-2-2V2.75C.75,1.65,1.65.75,2.75.75h7l7,7v2M16.25,7.75h-4.5c-1.1,0-2-.9-2-2V1.25"/>
    <g>
      <path d="M6.25,12h-1.5c-.41,0-.75.34-.75.75v5c0,.41.34.75.75.75s.75-.34.75-.75v-1.25h.75c1.24,0,2.25-1.01,2.25-2.25s-1.01-2.25-2.25-2.25ZM6.25,15h-.75v-1.5h.75c.41,0,.75.34.75.75s-.34.75-.75.75Z"/>
      <path d="M11.54,12h-1.29c-.41,0-.75.34-.75.75v5c0,.41.34.75.75.75h1.29c1.34,0,2.46-1.06,2.46-2.42v-1.67c0-1.35-1.12-2.42-2.46-2.42ZM12.5,16.08c0,.49-.41.92-.96.92h-.54v-3.5h.54c.55,0,.96.43.96.92v1.67Z"/>
      <path d="M18.75,13.5c.41,0,.75-.34.75-.75s-.34-.75-.75-.75h-3c-.41,0-.75.34-.75.75v5c0,.41.34.75.75.75s.75-.34.75-.75v-1.75h1.75c.41,0,.75-.34.75-.75s-.34-.75-.75-.75h-1.75v-1h2.25Z"/>
    </g>
  </g>
</svg>