<?xml version="1.0" encoding="UTF-8"?>
<svg id="Layer_2" xmlns="http://www.w3.org/2000/svg" version="1.1" viewBox="0 0 21.3 18.5">
  <!-- Generator: Adobe Illustrator 29.3.1, SVG Export Plug-In . SVG Version: 2.1.0 Build 151)  -->
  <defs>
    <style>
      .st0 {
        fill: none;
        stroke: #000;
        stroke-miterlimit: 10;
        stroke-width: 1.3px;
      }
    </style>
  </defs>
  <path class="st0" d="M5,.9c-.7-.2-1.3-.2-1.8-.2s-1.1.1-1.5.5c-.5.4-.7,1-.8,1.6v10.6c0,.5.2,1,.5,1.4.3.4.8.6,1.4.8.5.2,1.2.3,2.1.5h0c1.5.3,2.7.8,3.6,1.2h0c.4.2.8.4,1,.6,0,0,.1,0,.1-.1V2.7c0,0-.2-.2-.4-.3-1-.6-2.4-1.1-4.2-1.5Z"/>
  <path class="st0" d="M12.1,2.4c-.2,0-.4.2-.4.3v.5s0,14.6,0,14.6c0,.1.1.1.1.1.2-.2.6-.4,1-.6h0c.9-.4,2.1-.9,3.6-1.2h0c.9-.2,1.6-.3,2.1-.5.6-.2,1.1-.4,1.4-.8.3-.4.5-.9.5-1.4v-1.9s0-6.6,0-6.6v-2.1c0-.6-.3-1.2-.8-1.6-.4-.4-.9-.5-1.5-.5s-1.1,0-1.8.2c-1.8.4-3.2.9-4.2,1.5Z"/>
</svg>