<?xml version="1.0" encoding="UTF-8"?>
<svg id="Layer_1" xmlns="http://www.w3.org/2000/svg" version="1.1" xmlns:xlink="http://www.w3.org/1999/xlink" viewBox="0 0 24 24">
  <!-- Generator: Adobe Illustrator 29.3.1, SVG Export Plug-In . SVG Version: 2.1.0 Build 151)  -->
  <defs>
    <style>
      .st0 {
        fill: none;
        stroke: #000;
        stroke-linecap: round;
        stroke-linejoin: round;
        stroke-width: 1.5px;
      }
    </style>
  </defs>
  <path class="st0" d="M15.5,15l2,2M16.5,11.5c0-2.5-2-4.5-4.5-4.5s-4.5,2-4.5,4.5,2,4.5,4.5,4.5,4.5-2,4.5-4.5Z"/>
  <path class="st0" d="M15,2.5h4.5c1.1,0,2,.9,2,2v4.5M9,2.5h-4.5c-1.1,0-2,.9-2,2v4.5M9,21.5h-4.5c-1.1,0-2-.9-2-2v-4.5M15,21.5h4.5c1.1,0,2-.9,2-2v-4.5"/>
</svg>