<?xml version="1.0" encoding="UTF-8"?>
<svg id="Layer_1" xmlns="http://www.w3.org/2000/svg" version="1.1" viewBox="0 0 24 24">
  <!-- Generator: Adobe Illustrator 29.3.1, SVG Export Plug-In . SVG Version: 2.1.0 Build 151)  -->
  <defs>
    <style>
      .st0, .st1 {
        fill: none;
        stroke: #000;
        stroke-width: 1.5px;
      }

      .st1 {
        stroke-linecap: round;
        stroke-linejoin: round;
      }
    </style>
  </defs>
  <path class="st0" d="M15.5,12c0,1.9-1.6,3.5-3.5,3.5s-3.5-1.6-3.5-3.5,1.6-3.5,3.5-3.5,3.5,1.6,3.5,3.5Z"/>
  <path class="st1" d="M22,14v-3.9c-2.9,0-4.7-3.1-3.3-5.6l-3.5-2c-1.5,2.5-5.1,2.5-6.5,0l-3.5,2c1.4,2.5-.4,5.6-3.3,5.6v3.9c2.9,0,4.7,3.1,3.3,5.6l3.5,2c1.5-2.5,5.1-2.5,6.5,0l3.5-2c-1.4-2.5.4-5.6,3.3-5.6Z"/>
</svg>