<?xml version="1.0" encoding="UTF-8"?>
<svg id="Layer_2" data-name="Layer 2" xmlns="http://www.w3.org/2000/svg" viewBox="0 0 20.32 19.52">
  <defs>
    <style>
      .cls-1 {
        fill: none;
        stroke: #000;
        stroke-linejoin: round;
        stroke-width: 1.5px;
      }
    </style>
  </defs>
  <g id="Layer_1-2" data-name="Layer 1">
    <path class="cls-1" d="M9.27,1.3c.37-.73,1.41-.73,1.78,0l2.19,4.29c.15.28.42.48.73.53l4.75.76c.81.13,1.13,1.12.55,1.69l-3.4,3.41c-.23.23-.33.55-.28.86l.75,4.76c.13.81-.71,1.42-1.44,1.05l-4.29-2.18c-.29-.15-.62-.15-.91,0l-4.29,2.18c-.73.37-1.57-.24-1.44-1.05l.75-4.76c.05-.32-.05-.64-.28-.86l-3.4-3.41c-.58-.58-.26-1.57.55-1.69l4.75-.76c.32-.05.59-.25.73-.53l2.19-4.29Z"/>
  </g>
</svg>