<?xml version="1.0" encoding="UTF-8"?>
<svg id="Layer_2" data-name="Layer 2" xmlns="http://www.w3.org/2000/svg" viewBox="0 0 21.5 20">
  <defs>
    <style>
      .cls-1 {
        fill-rule: evenodd;
      }
    </style>
  </defs>
  <g id="Layer_1-2" data-name="Layer 1">
    <path class="cls-1" d="M2.44,6.97c.1-.07.21-.13.31-.18.12-3.9,3.8-6.8,8-6.8s7.87,2.89,8,6.8c.11.05.21.11.31.18l1.66,1.1c.49.32.78.87.78,1.46v2.93c0,.59-.29,1.13-.78,1.46l-1.66,1.1c-.1.07-.2.13-.31.18v1.8c0,1.66-1.34,3-3,3h-5c-.55,0-1-.45-1-1s.45-1,1-1h5c.55,0,1-.45,1-1v-1.68c-.1-.04-.21-.08-.31-.13-.89-.44-1.44-1.35-1.44-2.34v-3.7c0-.99.56-1.89,1.44-2.34.1-.05.19-.09.29-.12-.19-2.5-2.66-4.69-5.99-4.69s-5.8,2.19-5.99,4.69c.1.04.2.08.29.12.89.44,1.44,1.35,1.44,2.34v3.7c0,.99-.56,1.89-1.44,2.34-.84.42-1.84.36-2.62-.16l-1.66-1.1c-.49-.32-.78-.87-.78-1.46v-2.93c0-.59.29-1.13.78-1.46l1.66-1.1Z"/>
  </g>
</svg>