<?xml version="1.0" encoding="UTF-8"?>
<svg id="Layer_2" xmlns="http://www.w3.org/2000/svg" version="1.1" viewBox="0 0 21.5 21.5">
  <!-- Generator: Adobe Illustrator 29.3.1, SVG Export Plug-In . SVG Version: 2.1.0 Build 151)  -->
  <defs>
    <style>
      .st0 {
        fill: none;
        stroke: #000;
        stroke-linecap: round;
        stroke-linejoin: round;
        stroke-width: 1.5px;
      }
    </style>
  </defs>
  <path class="st0" d="M15.8,5.8h3c1.1,0,2,.9,2,2v11c0,1.1-.9,2-2,2H7.8c-1.1,0-2-.9-2-2v-3M15.8,5.8v-3c0-1.1-.9-2-2-2H2.8C1.6.8.8,1.6.8,2.8v11c0,1.1.9,2,2,2h3M15.8,5.8L5.8,15.8"/>
  <path class="st0" d="M11.8,17.8l2-6h1l2,6M12.8,15.8h3"/>
  <path d="M10.4,3.1H3.2c-.4,0-.7.3-.6.6,0,.3.3.6.6.6h5.7v2.8c-.1-.1-.4-.2-.6-.2,0-.2,0-.4,0-.6,0-.5-.2-1-.5-1.3-.3-.3-.8-.5-1.3-.5s-.8.1-1.1.4-.4.6-.4,1.1.2.8.6.8.7-.3.7-.7,0-.2,0-.3c0,0,.1-.1.2-.1s.2,0,.3.2c0,.1.1.3.1.5,0,.3,0,.6-.3.8s-.5.3-.9.3-.7-.1-1-.4-.4-.7-.4-1.2v-.2c0-.3-.2-.6-.5-.6,0,0-.1,0-.2,0-.4,0-.7.3-.7.7,0,1,.2,1.8.8,2.2.5.5,1.2.7,2,.7s1.3-.2,1.8-.6h.3c.5,0,.8.2.9.6.1.3.4.5.7.5s.8-.3.7-.8v-4.1h.1c.4,0,.6-.3.6-.6s-.3-.6-.6-.6h0Z"/>
</svg>