<?xml version="1.0" encoding="UTF-8"?>
<svg id="Layer_1" xmlns="http://www.w3.org/2000/svg" version="1.1" xmlns:xlink="http://www.w3.org/1999/xlink" viewBox="0 0 24 24">
  <!-- Generator: Adobe Illustrator 29.3.1, SVG Export Plug-In . SVG Version: 2.1.0 Build 151)  -->
  <defs>
    <style>
      .st0 {
        fill: none;
        stroke: #000;
        stroke-linecap: round;
        stroke-linejoin: round;
        stroke-width: 1.5px;
      }
    </style>
  </defs>
  <path class="st0" d="M19,22H5c-1.1,0-2-.9-2-2V4c0-1.1.9-2,2-2h7l7,7v2M18.5,9h-4.5c-1.1,0-2-.9-2-2V2.5"/>
  <path class="st0" d="M18,14h1.5M19.5,14h1.5M19.5,14v5M7,14h1.5M8.5,14h1.5M8.5,14v5M12.5,14l1.5,2.5M14,16.5l1.5,2.5M14,16.5l1.5-2.5M14,16.5l-1.5,2.5"/>
</svg>