<?xml version="1.0" encoding="UTF-8"?>
<svg id="Layer_1" xmlns="http://www.w3.org/2000/svg" version="1.1" viewBox="0 0 24 24">
  <!-- Generator: Adobe Illustrator 29.3.1, SVG Export Plug-In . SVG Version: 2.1.0 Build 151)  -->
  <defs>
    <style>
      .st0, .st1 {
        fill: none;
        stroke: #000;
        stroke-linecap: round;
        stroke-width: 1.5px;
      }

      .st1 {
        stroke-linejoin: round;
      }
    </style>
  </defs>
  <path class="st1" d="M14,14.8v-5.6c0-3.1,0-4.7-.9-5.1-.9-.4-2,.7-4.2,2.9-1.1,1.2-1.8,1.4-3.4,1.4s-2.1,0-2.6.3c-1,.7-.9,2.1-.9,3.2s-.2,2.5.9,3.2c.5.3,1.2.3,2.6.3s2.2.3,3.4,1.4c2.2,2.2,3.3,3.3,4.2,2.9.9-.4.9-2,.9-5.1Z"/>
  <path class="st0" d="M17,12h5M19.5,14.5v-5"/>
</svg>