<?xml version="1.0" encoding="UTF-8"?>
<svg id="Layer_1" xmlns="http://www.w3.org/2000/svg" version="1.1" viewBox="0 0 432.6 93.4">
  <!-- Generator: Adobe Illustrator 29.3.1, SVG Export Plug-In . SVG Version: 2.1.0 Build 151)  -->
  <defs>
    <style>
      .st0 {
        fill: #fff;
      }
    </style>
  </defs>
  <path class="st0" d="M12.7,27c0-2.3,0-3.8,0-4.6,0-2.3,0-3.8,0-4.6s-.1-1.3-.2-1.6c-.2-.8-.5-1.4-.6-1.6-.4-.8-.8-1.3-1-1.5-.6-.7-1-1.1-1.2-1.3-.7-.5-1.2-.7-1.4-.9-.8-.3-1.3-.3-1.6-.3-.6,0-1,.1-1.3.2-.7.2-1.1.4-1.3.5-.6.4-.9.7-1,.9-.4.5-.4,1-.4,1.2s0,.5.1.6c.7-.4,1.1-.6,1.3-.7.6-.3,1.1-.3,1.4-.3.8,0,1.3.2,1.5.3.7.3,1,.7,1.2.8.5.5.7,1,.8,1.2.3.7.3,1.2.3,1.5,0,.8-.2,1.3-.3,1.6-.3.8-.7,1.3-.8,1.6-.5.8-.9,1.2-1.1,1.4-.6.7-.9,1-1.1,1.2l-1.1-2c.4-.4.8-.8.9-1,.5-.6.8-1,1-1.2.5-.6.7-1.1.8-1.3.3-.7.3-1.1.3-1.3,0-.3,0-.5-.1-.6-.1-.3-.2-.4-.3-.5-.2-.2-.4-.3-.5-.4-.3-.1-.5-.1-.6-.1-.6,0-.9.2-1.1.3-.5.3-.8.5-.9.6-.4.3-.7.5-.8.6-.4.3-.7.3-.8.3-.5,0-.8-.1-.9-.2-.4-.2-.5-.4-.6-.5-.2-.3-.3-.6-.4-.8-.1-.4-.1-.7-.1-.9,0-1.1.3-1.7.5-2,.5-.9,1-1.3,1.3-1.5.8-.6,1.5-.8,1.8-1,1-.3,1.7-.3,2-.3,1.2,0,2,.3,2.3.5,1.1.5,1.7,1.1,1.9,1.4.9.9,1.3,1.6,1.5,1.9.6,1.1.8,1.8.9,2.2h0v-1.8c0-1.7,0-2.8,0-3.4,0-1.7-.1-2.8-.2-3.4h0s.9.6.9.6c.2.7.3,1,.4,1.1.2.4.5.6.6.7.3.2.7.3.8.3.5,0,1,0,1.2,0l1,1.5h0s-.8,0-.8,0c-.3,0-.5,0-.7,0-.4,0-.6-.1-.7-.1-.4,0-.6-.2-.7-.3-.3-.2-.5-.3-.6-.4h0c0,4.6,0,7.6,0,9.1,0,4.5.1,7.6.2,9.1h0s-1.8-1.1-1.8-1.1Z"/>
  <path class="st0" d="M16,9.2h10.3l1.2,1.5h0c-.4,0-.7,0-.8,0-.4,0-.7,0-.8,0-.2,0-.5.1-.6.2-.3.2-.6.3-.7.4-.4.2-.6.4-.7.4-.3.2-.4.3-.5.4-.8.7-1.2,1.3-1.4,1.6-.6.9-.9,1.6-1,2-.4,1-.5,1.8-.6,2.1-.2,1.1-.2,1.8-.2,2.2,0,.5,0,1,0,1.2,0,.7.2,1.2.2,1.4.2.7.3,1.2.4,1.4.3.7.5,1,.7,1.2.4.5.8.8,1,.9.5.3,1,.3,1.3.3h.1c-.3-.3-.4-.6-.4-.8-.1-.4-.1-.7-.1-.8,0-.4,0-.6.1-.7.1-.3.3-.5.4-.6.3-.3.5-.3.6-.4.3-.1.6-.1.7-.1.4,0,.7.1.8.2.4.2.5.3.6.4.3.3.4.5.4.6.1.4.1.7.1.8,0,.6-.2.9-.2,1.1-.2.5-.5.7-.6.8-.4.3-.8.5-.9.5-.5.2-.9.2-1.1.2-1,0-1.6-.3-1.8-.4-.8-.4-1.2-.9-1.4-1.1-.6-.7-.9-1.3-1.1-1.6-.5-.9-.6-1.6-.7-1.9-.3-1-.4-1.6-.4-1.9-.1-1-.1-1.5-.1-1.8,0-1.1.1-1.9.2-2.2.2-1.1.5-1.9.7-2.2.4-1.1.9-1.7,1.1-2,.7-.9,1.2-1.4,1.5-1.6h-5l-1.1-1.5h0Z"/>
  <path class="st0" d="M30.1,18.1c1,.5,1.6.9,1.9,1.1.9.7,1.5,1.2,1.8,1.5.9.8,1.3,1.4,1.6,1.7.7.9,1.1,1.5,1.3,1.8h0c0-.3,0-.5,0-.6v-9.5c-.8.3-1.4.6-1.8.7-.9.4-1.5.8-1.8.9-.9.5-1.4.9-1.7,1-.8.6-1.3.9-1.5,1.1v.2ZM27.3,17.3c1-.8,1.7-1.3,2.1-1.6,1.1-.8,2-1.2,2.4-1.5,1.2-.7,2.1-1.1,2.5-1.3,1.3-.6,2.1-.8,2.5-1v-1.3h-9.9l-1.2-1.5h15l.9,1.5h0s-3.4,0-3.4,0v12.2c0,1.3,0,2.2,0,2.6,0,1.3.2,2.2.3,2.6l-1.3-.5c-.3-1.4-.9-2.3-1.2-2.7-.8-1.3-1.6-2-2-2.4-1.1-1.1-2-1.6-2.5-1.9-1.4-.8-2.3-1-2.7-1.2l-1.5-2v-.2Z"/>
  <path class="st0" d="M51.7,10.7h-7.1c1,.6,1.5,1,1.8,1.3.9.7,1.4,1.2,1.7,1.5.9.8,1.4,1.2,1.7,1.5.9.7,1.5,1.2,1.8,1.4v-5.6ZM45.6,18.9c1.9.9,2.9,1.8,3.4,2.2,1.5,1.3,2.2,2.5,2.6,3.1h0c0-1.6,0-2.7,0-3.3,0-1.6,0-2.7,0-3.3-.7-.4-1.1-.7-1.3-.9-.6-.5-1-.8-1.2-1l-3.7,3v.2ZM55.5,9.2l1,1.5h0s-3.5,0-3.5,0v12.8c0,1.2,0,2,0,2.4,0,1.2.2,2,.3,2.4l-1.2-.5c-.6-1.5-1.1-2.2-1.3-2.6-.7-1.1-1.4-1.7-1.7-2-.9-.9-1.8-1.2-2.2-1.4-1.2-.6-2.3-.8-2.8-.9-.5-.5-.8-.8-.9-.9-.5-.5-.8-.8-.9-1v-.3c1.3-1,2.1-1.7,2.5-2,1.2-1,2.1-1.7,2.5-2-.5-.4-.9-.7-1.1-.8-.6-.3-1.1-.5-1.3-.6-.7-.3-1.1-.4-1.4-.5-.7-.2-1.1-.3-1.3-.4-.4-.3-.5-.6-.6-.7-.3-.4-.4-.7-.5-.8h-.2l-1-1.5h0s15.5,0,15.5,0Z"/>
  <path class="st0" d="M66.7,27c0-2.3,0-3.8,0-4.6,0-2.3,0-3.8,0-4.6s0-.5,0-.6c0-.4-.1-.6-.2-.7-.1-.4-.2-.6-.2-.7-.1-.4-.2-.5-.2-.6-.2-.7-.5-1.2-.6-1.5-.4-.8-.8-1.2-.9-1.4-.6-.7-1-.9-1.2-1.1-.7-.4-1.3-.4-1.5-.4-.9,0-1.4.2-1.6.3-.7.3-1,.7-1.2.9-.5.6-.7,1.1-.7,1.3-.3.8-.3,1.3-.3,1.6,0,.5,0,.8.1,1,.1.6.3.9.4,1,.3.5.6.7.7.8.4.3.8.3,1,.3.3,0,.5,0,.6-.1-.3-.2-.5-.5-.5-.6-.2-.4-.2-.6-.2-.8,0-.8.3-1.1.5-1.3.5-.5,1-.5,1.3-.5.4,0,.7.1.8.2.4.2.5.4.6.5.3.3.3.5.4.7.1.4.1.7.1.8,0,.6-.2.9-.3,1.1-.3.5-.6.7-.7.8-.4.3-.8.4-1,.5-.5.2-.9.2-1.1.2-1,0-1.5-.3-1.8-.4-.8-.4-1.2-.9-1.4-1.1-.6-.7-.8-1.3-.9-1.6-.3-.9-.3-1.5-.3-1.8,0-1.1.2-1.7.4-2.1.4-1,.8-1.5,1-1.8.7-.8,1.3-1.1,1.6-1.2.9-.5,1.7-.5,2.1-.5,1.1,0,1.7.4,2,.6.9.6,1.4,1.2,1.6,1.5.7.9,1,1.6,1.2,1.9.5,1.1.6,1.7.7,2h0v-1.8c0-1.7,0-2.8,0-3.4,0-1.7-.1-2.8-.2-3.4h0s.9.6.9.6c.2.7.3,1,.4,1.1.2.4.5.6.6.7.3.2.7.3.8.3.5,0,1,0,1.2,0l1,1.5h0s-.8,0-.8,0c-.3,0-.5,0-.7,0-.4,0-.6-.1-.7-.1-.4,0-.6-.2-.7-.3-.3-.2-.5-.3-.5-.4h0c0,4.6,0,7.6,0,9.1,0,4.5.1,7.6.2,9.1h0s-1.8-1.1-1.8-1.1Z"/>
  <path class="st0" d="M77.5,10.7c-.3,0-.5,0-.7,0-.3,0-.6,0-.7-.1-.3,0-.5-.2-.6-.2-.3-.1-.5-.3-.6-.4h0c0,4.6,0,7.6,0,9.1,0,4.5.1,7.5.2,9h0s-1.6-1-1.6-1c0-3,0-5,0-5.9,0-3,0-4.9,0-5.9s0-.7,0-.9c0-.5-.1-.8-.1-1-.1-.5-.2-.8-.3-1-.2-.5-.4-.7-.5-.8-.3-.4-.5-.5-.7-.6-.4-.2-.7-.2-.9-.2l-1-1.5h0c.8,0,1.2,0,1.4.1.6.2.9.4,1,.5.4.3.6.7.7.9.3.5.5,1,.5,1.3,0-1.4,0-2.3,0-2.8,0-1.4-.1-2.3-.2-2.8h0s1.2.6,1.2.6c.1.7.2,1,.3,1.1.2.4.4.6.5.7.3.2.6.3.8.3.5,0,.9,0,1.1,0l1.1,1.5h0s-1,0-1,0Z"/>
  <path class="st0" d="M87.5,12.2c.4,1.2.7,2.2.9,2.7.5,1.4,1,2.3,1.2,2.8.7,1.4,1.3,2.2,1.6,2.7.9,1.3,1.6,1.9,2,2.2,1.1,1,2,1.4,2.4,1.5,1.3.6,2.3.6,2.9.6s1.1-.1,1.3-.2c.6-.2,1-.5,1.1-.6.5-.4.7-.8.8-1,.3-.6.3-1.1.3-1.3,0-.9-.3-1.4-.5-1.6-.5-.8-.9-1.1-1.2-1.3-.3.2-.6.3-.7.3-.4.1-.6.1-.7.1-.8,0-1.1-.3-1.3-.5-.5-.5-.5-1-.5-1.3,0-.4,0-.6.1-.7.1-.3.3-.5.4-.6.2-.3.4-.3.6-.4.3-.1.6-.1.7-.1.4,0,.6,0,.7.1.3.1.5.3.6.4.7-.5,1-1,1.1-1.3.4-.8.4-1.4.4-1.7,0-1.2-.4-1.6-.6-1.9-.6-.7-1.4-.7-1.8-.7-.9,0-1.5.2-1.8.3-.9.3-1.5.6-1.7.8-.8.5-1.3,1-1.5,1.2-.7.7-.9,1.2-1,1.5.4,0,.7,0,.8,0,.4.1.5.3.6.4.3.2.4.5.4.6.2.4.2.6.2.8,0,.4-.1.7-.2.8-.2.4-.3.5-.4.6-.3.3-.5.3-.6.4-.4.1-.6.1-.8.1-.5,0-.8-.1-.9-.2-.4-.2-.6-.5-.7-.6-.3-.4-.4-.7-.4-.8-.1-.5-.1-.8-.1-.9,0-.8.2-1.4.3-1.7.3-.8.7-1.3.9-1.5.6-.7,1.1-1.1,1.3-1.3.7-.6,1.3-.9,1.6-1,.8-.4,1.4-.6,1.7-.7.9-.2,1.4-.2,1.6-.2,1,0,1.5.2,1.8.4.8.4,1.2.8,1.4,1,.6.6.8,1.2.9,1.5.3.8.3,1.5.3,1.8,0,1-.3,1.7-.4,2-.4,1-.8,1.5-1,1.8.7,1,1,1.8,1.1,2.2.4,1.2.4,2,.4,2.4,0,1-.2,1.6-.3,1.8-.3.8-.7,1.2-.9,1.4-.6.6-1.2.8-1.4.9-.8.3-1.5.3-1.8.3-1.3,0-2.1-.3-2.5-.4-1.2-.4-1.8-.9-2.2-1.1-1-.7-1.6-1.3-1.9-1.7-.9-1-1.4-1.7-1.6-2.1-.7-1.1-1.1-1.9-1.3-2.3-.6-1.2-.9-2-1.1-2.5-.5-1.2-.7-2-.9-2.4-.4-1.2-.6-1.9-.7-2.3l1.2.3Z"/>
  <path class="st0" d="M126.3,16h0,0ZM116.9.8c-.3.1-.7.3-.8.3-.5.2-.8.4-.9.5-.4.3-.6.5-.7.7-.3.4-.3.7-.3.8,0,.3.1.5.2.6.2.2.4.3.5.4.3.2.6.2.7.3.4.1.7.1.8.2.4,0,.6,0,.8,0,.4,0,.5,0,.6,0,1,0,1.7,0,2.1,0,1.1,0,1.9,0,2.3,0,1.1,0,1.9.2,2.2.3,1.1.2,1.7.6,2,.7.9.5,1.3,1.1,1.5,1.4.6.9.7,1.8.7,2.2h2.2l1,1.5h0s-10.7,0-10.7,0v5.6c0,.3,0,.5,0,.6,0,.3.1.6.1.7.1.3.2.5.3.5.2.2.4.2.6.2.4,0,.7-.2.8-.2.4-.2.7-.5.8-.6.4-.4.6-.7.8-.9.4-.5.6-.8.7-1,.3-.5.4-.8.5-1,.2-.5.3-.7.3-.8h.2c.8.2,1.2.6,1.4.8.6.6.9,1.1,1,1.3.4.8.5,1.3.6,1.6.2.8.2,1.4.2,1.6,0,1.4-.3,2.2-.5,2.6-.5,1.3-1,1.9-1.3,2.2-.8,1-1.6,1.3-2,1.5-1.2.6-2.1.6-2.6.6-1.2,0-1.9-.3-2.2-.4-1-.4-1.6-.8-1.8-1.1-.8-.7-1.3-1.3-1.5-1.6-.7-.9-1-1.6-1.2-2-.5-1.1-.8-1.8-1-2.2-.4-1.1-.6-1.9-.8-2.3-.3-1.1-.5-1.9-.6-2.2-.3-1.1-.4-1.7-.5-2l1.1.5c.2,1,.4,1.8.6,2.2.3,1.2.7,2,.8,2.4.5,1.2.9,2,1.1,2.4.6,1.2,1.2,1.8,1.5,2.1.8.9,1.5,1.3,1.9,1.5,1,.6,1.9.6,2.3.6,1.1,0,1.8-.2,2.1-.4,1-.4,1.5-.8,1.8-1.1.8-.7,1.1-1.3,1.2-1.6.5-1,.5-1.7.5-2.1,0-.8-.2-1.2-.3-1.5-.3-.7-.8-1-1-1.1-.3.6-.6,1-.8,1.2-.5.7-.9,1-1.1,1.2-.6.6-1.1.8-1.3.9-.7.4-1.2.4-1.4.4-.7,0-1-.2-1.2-.3-.5-.3-.7-.7-.9-.9-.3-.5-.5-1-.5-1.2-.2-.6-.2-1-.2-1.2,0-1.5,0-2.4,0-2.9,0-1.4,0-2.4,0-2.9h-6.7l-1-1.5h0s14.3,0,14.3,0c.3-.2.5-.3.6-.4.3-.3.3-.5.3-.6,0-.5-.2-.7-.3-.8-.3-.3-.7-.4-.8-.5-.5-.2-.8-.2-1-.2-.5,0-.8,0-.9,0-.6,0-1.3,0-1.6,0-1,0-1.8,0-2.2,0-1.2,0-2-.1-2.4-.2-1.2-.1-1.9-.4-2.2-.5-1-.4-1.4-.7-1.6-.9-.6-.6-.6-1.2-.6-1.5,0-.7.2-1,.3-1.2.3-.6.5-.8.7-1,.4-.4.8-.7,1-.8.6-.3.9-.4,1.1-.5l.6.8Z"/>
  <path class="st0" d="M145.9,9.2l1,1.5h0s-3.5,0-3.5,0v10.7c0,1.8,0,2.9,0,3.5,0,1.8.3,3,.4,3.5l-.9-.5c-.2-.7-.4-1.1-.5-1.4-.3-.7-.6-1.2-.7-1.4-.4-.7-.8-1.1-.9-1.3-.5-.6-.9-.9-1.1-1.1-.6-.5-1.1-.6-1.3-.7-.7-.3-1.2-.3-1.4-.3s-.5,0-.6,0c-.3,0-.5.1-.5.1.7,0,.9.4,1.1.5.4.4.4.9.4,1.1,0,.4-.1.6-.2.8-.2.4-.3.6-.4.6-.3.3-.5.4-.6.5-.4.2-.6.2-.8.2-.6,0-.9-.1-1.1-.2-.5-.2-.7-.5-.8-.6-.3-.4-.4-.7-.5-.9-.2-.5-.2-.9-.2-1.1,0-.7.2-1,.3-1.2.3-.5.6-.8.8-.9.5-.4.9-.5,1.1-.6.6-.2,1-.2,1.2-.2,1,0,1.6.2,1.9.3.9.3,1.4.6,1.6.8.7.5,1.1,1,1.3,1.2.6.7.9,1.3,1.1,1.6h0c0-.4-.1-.7-.1-.9,0-.4,0-.7,0-.8v-.9c0-.5,0-.8,0-.9,0-.5,0-.8-.1-.9,0-.5-.2-.8-.3-.9-.3-.8-.7-1.3-.8-1.5-.5-.7-1-1.1-1.2-1.2-.7-.5-1.3-.7-1.5-.8-.8-.3-1.4-.3-1.7-.3s-.4,0-.5,0c.2.1.4.2.4.3.2.2.3.4.3.5.1.3.2.4.2.5,0,.3,0,.5,0,.5,0,.4-.1.6-.2.7-.2.3-.4.5-.4.6-.3.3-.5.4-.6.4-.4.2-.6.2-.7.2-.5,0-.8-.1-1-.2-.5-.2-.7-.4-.8-.5-.3-.3-.5-.6-.5-.8-.2-.5-.2-.8-.2-1,0-.7.2-1.1.3-1.3.3-.6.6-.9.7-1,.5-.4.9-.6,1.1-.6.6-.2,1.1-.2,1.3-.2,1.1,0,1.8.2,2.1.4.9.4,1.5.8,1.7,1,.8.6,1.2,1.2,1.4,1.4.6.8,1,1.4,1.2,1.7h0c0-.3,0-.6,0-.7,0-.3,0-.5,0-.6,0-1.4,0-2.3,0-2.7,0-1.4,0-2.3,0-2.7h-11l-1-1.5h0s16,0,16,0Z"/>
  <path class="st0" d="M150.8,18.8c1.8,1,2.8,1.9,3.3,2.3,1.5,1.3,2.3,2.5,2.6,3h0c0-.6,0-.9,0-1.1v-12.3s-7.3,0-7.3,0c.7.4,1.2.8,1.4.9.7.5,1.1.9,1.3,1.1.7.6,1.1,1,1.3,1.2.6.6,1,1,1.1,1.3v.3c-1,.8-1.7,1.3-2,1.6-1,.8-1.6,1.3-2,1.6v.2ZM153.2,25.3c0,.3,0,.5-.1.6-.1.3-.3.5-.3.5-.2.2-.4.3-.5.4-.3.1-.5.1-.6.1-.3,0-.5,0-.6-.1-.3-.1-.4-.3-.5-.4-.2-.2-.3-.4-.4-.5-.1-.3-.1-.5-.1-.6,0-.3,0-.5.1-.6.1-.3.3-.4.4-.5.2-.2.4-.3.5-.3.3-.1.5-.1.6-.1.3,0,.5,0,.6.1.3.1.4.3.5.3.2.2.3.4.3.5.1.3.1.5.1.6ZM147.6,18.6v-.2c1.2-1,2.1-1.7,2.5-2,1.2-1,2.1-1.7,2.5-2-.4-.4-.8-.7-1.1-.8-.7-.4-1.2-.5-1.5-.6-.8-.3-1.3-.4-1.5-.5-.8-.2-1.1-.3-1.3-.3-.2-.2-.3-.4-.4-.5-.2-.2-.2-.4-.3-.5-.1-.2-.2-.4-.3-.5-.1-.3-.2-.4-.3-.5-.2-.3-.3-.4-.4-.5-.2-.3-.3-.4-.4-.5h0s15.4,0,15.4,0l1,1.5h0s-3.5,0-3.5,0v12.7c0,1.2,0,2,0,2.4,0,1.2.2,2,.3,2.4l-1.2-.5c-.5-1.5-1-2.3-1.2-2.7-.7-1.1-1.4-1.7-1.7-2-1-.8-1.8-1.2-2.2-1.4-1.2-.6-2.3-.8-2.8-1l-1.8-2Z"/>
  <path class="st0" d="M159.9,9.2h10.3l1.2,1.5h0c-.4,0-.7,0-.8,0-.4,0-.7,0-.8,0-.2,0-.5.1-.6.2-.3.2-.6.3-.7.4-.4.2-.6.4-.7.4-.3.2-.4.3-.5.4-.8.7-1.2,1.3-1.4,1.6-.6.9-.9,1.6-1,2-.4,1-.5,1.8-.6,2.1-.2,1.1-.2,1.8-.2,2.2,0,.5,0,1,0,1.2,0,.7.2,1.2.2,1.4.2.7.3,1.2.4,1.4.3.7.5,1,.7,1.2.4.5.8.8,1,.9.5.3,1,.3,1.3.3h.1c-.3-.3-.4-.6-.4-.8-.1-.4-.1-.7-.1-.8,0-.4,0-.6.1-.7.1-.3.3-.5.4-.6.3-.3.5-.3.6-.4.3-.1.6-.1.7-.1.4,0,.7.1.8.2.4.2.5.3.6.4.3.3.4.5.4.6.1.4.1.7.1.8,0,.6-.2.9-.2,1.1-.2.5-.5.7-.6.8-.4.3-.8.5-.9.5-.5.2-.9.2-1.1.2-1,0-1.6-.3-1.8-.4-.8-.4-1.2-.9-1.4-1.1-.6-.7-.9-1.3-1.1-1.6-.5-.9-.6-1.6-.7-1.9-.3-1-.4-1.6-.4-1.9-.1-1-.1-1.5-.1-1.8,0-1.1.1-1.9.2-2.2.2-1.1.5-1.9.7-2.2.4-1.1.9-1.7,1.1-2,.7-.9,1.2-1.4,1.5-1.6h-5l-1.1-1.5h0Z"/>
  <path class="st0" d="M185.6,9.2l1,1.5h0c-.9,0-1.5,0-1.8,0-.9,0-1.5,0-1.8,0v10.1c0,1.8.1,3.1.1,3.7,0,1.9.3,3.1.4,3.7l-1.1-.5c-.2-.5-.3-1-.4-1.3-.2-.7-.4-1.3-.5-1.6-.3-.9-.5-1.5-.6-1.8-.3-.9-.6-1.5-.7-1.8-.4-.9-.7-1.4-.9-1.6-.5-.8-.9-1.2-1-1.3-.6-.6-1-.8-1.2-.9-.6-.3-1.1-.3-1.4-.3s-.5,0-.6,0c-.3,0-.5.2-.6.2.4,0,.6.2.7.3.3.2.5.4.5.5.2.3.3.5.3.6.1.3.1.6.1.7,0,.5-.1.8-.2,1-.2.4-.4.6-.5.7-.3.3-.6.4-.8.4-.4.2-.8.2-1,.2-.6,0-.9-.2-1-.2-.5-.2-.7-.5-.8-.6-.3-.4-.4-.7-.5-.9-.2-.5-.2-.9-.2-1,0-.9.2-1.3.3-1.5.3-.7.7-1,.9-1.2.6-.5,1.1-.7,1.3-.8.7-.3,1.3-.3,1.6-.3.8,0,1.3.2,1.5.3.7.3,1.1.6,1.3.8.6.5.9.9,1.1,1.1.5.6.8,1.1.9,1.4.4.7.6,1.2.7,1.4.3.7.5,1.2.6,1.4h0c0-.4,0-.6,0-.8,0-.4,0-.6,0-.8v-9.3c0,0-11,0-11,0l-1-1.5h0s15.9,0,15.9,0Z"/>
  <path class="st0" d="M189.2,18.1c1,.5,1.6.9,1.9,1.1.9.7,1.5,1.2,1.8,1.5.9.8,1.3,1.4,1.6,1.7.7.9,1.1,1.5,1.3,1.8h0c0-.3,0-.5,0-.6,0-.3,0-.5,0-.6v-8.9c-.8.3-1.4.6-1.7.7-.9.4-1.5.8-1.8.9-.9.5-1.4.9-1.7,1-.8.6-1.3.9-1.5,1.1v.2ZM186.5,17.3c1-.8,1.7-1.3,2.1-1.6,1.1-.8,2-1.2,2.4-1.5,1.2-.7,2.1-1.1,2.5-1.3,1.3-.6,2.1-.8,2.5-1v-1.3h-9.9l-1.2-1.5h15l.9,1.5h0s-3.4,0-3.4,0v12.2c0,1.3,0,2.2.1,2.6,0,1.3.2,2.2.2,2.6l-1.3-.6c-.3-1.4-.9-2.3-1.1-2.7-.8-1.3-1.6-2-2-2.4-1.1-1.1-2.1-1.6-2.5-1.9-1.4-.8-2.3-1-2.7-1.2l-1.5-2v-.2ZM192.8,25.4c0,.3,0,.5-.1.6-.1.3-.3.4-.3.5-.2.2-.4.3-.5.4-.3.1-.5.1-.6.1-.3,0-.5,0-.6-.1-.3-.1-.4-.3-.5-.3-.2-.2-.3-.4-.4-.5-.1-.3-.1-.5-.1-.6,0-.3,0-.5.1-.6.1-.3.3-.4.4-.5.2-.2.4-.3.5-.3.3-.1.5-.1.6-.1.3,0,.5,0,.6.1.3.1.4.3.5.4.2.2.3.4.3.5.1.3.1.5.1.6Z"/>
  <path class="st0" d="M211.5,10.7c2.3,1.4,3.1,2.7,3.5,3.4,1.2,2,1.2,3.8,1.2,4.7v.3c0,.2,0,.3,0,.3.8.8,1.3,1.5,1.6,1.8.7,1,1.1,1.7,1.3,2v-12.6s-7.5,0-7.5,0ZM223,9.2l1,1.5h0s-3.5,0-3.5,0v12.4c0,1.3,0,2.1.1,2.5,0,1.3.2,2.1.3,2.5l-1.2-.5c-.3-.9-.6-1.5-.7-1.8-.4-.9-.7-1.5-.9-1.8-.5-.9-.9-1.4-1.1-1.6-.6-.8-1.1-1.1-1.4-1.3-.4.7-.9,1.1-1.1,1.2-.7.5-1.3.5-1.6.5-.6,0-.9-.1-1.1-.2-.5-.2-.7-.4-.8-.5-.4-.3-.5-.7-.6-.8-.2-.5-.2-.9-.2-1.1,0-.5.1-.8.2-1,.2-.5.4-.7.5-.8.3-.3.7-.5.8-.5.5-.2.8-.2,1-.2.8,0,1.3.2,1.5.3.2-.4.2-.7.3-.9.1-.5.1-.8.1-.9,0-.7-.2-1-.2-1.2-.2-.5-.5-.7-.6-.9-.4-.4-.7-.5-.9-.6-.5-.3-.9-.4-1.1-.5-.6-.2-.9-.3-1.1-.3-.6-.2-.9-.2-1.1-.3-.4-.4-.5-.7-.6-.9-.3-.5-.4-.8-.5-1h-.2l-1-1.5h0s15.7,0,15.7,0Z"/>
  <path class="st0" d="M229.8,10.7c-.3,0-.5,0-.7,0-.3,0-.6,0-.7-.1-.3,0-.5-.2-.6-.2-.3-.1-.5-.3-.6-.4h0c0,4.6,0,7.6,0,9.1,0,4.5.1,7.5.2,9h0s-1.6-1-1.6-1c0-3,0-5,0-5.9,0-3,0-4.9,0-5.9s0-.7,0-.9c0-.5-.1-.8-.1-1-.1-.5-.2-.8-.3-1-.2-.5-.4-.7-.5-.8-.3-.4-.5-.5-.7-.6-.4-.2-.7-.2-.9-.2l-1-1.5h0c.8,0,1.2,0,1.4.1.6.2.9.4,1,.5.4.3.6.7.7.9.3.5.5,1,.5,1.3,0-1.4,0-2.3,0-2.8,0-1.4-.1-2.3-.2-2.8h0s1.2.6,1.2.6c.1.7.2,1,.3,1.1.2.4.4.6.5.7.3.2.6.3.8.3.5,0,.9,0,1.1,0l1.1,1.5h0s-1,0-1,0Z"/>
  <path class="st0" d="M233.7,18.1c1,.5,1.6.9,1.9,1.2,1,.7,1.5,1.2,1.8,1.5.9.8,1.4,1.4,1.6,1.7.7.9,1.1,1.5,1.3,1.8h0c0-.3,0-.5,0-.6v-9.5c-.8.3-1.4.6-1.8.7-.9.4-1.5.8-1.8.9-.9.5-1.4.9-1.7,1.1-.8.6-1.3,1-1.5,1.1v.2ZM231,17.3c.8-.7,1.4-1.1,1.8-1.4.9-.6,1.5-1,1.9-1.2-.6,0-.9-.3-1.1-.4-.5-.3-.7-.5-.9-.7-.4-.4-.5-.8-.6-.9-.2-.5-.2-.9-.2-1.1,0-.7.2-1,.3-1.2.3-.6.6-.8.7-1,.4-.4.8-.6,1-.6.6-.2,1-.2,1.2-.2.4,0,.6,0,.8.1.4.1.5.3.6.4.3.2.4.5.4.6.2.3.2.6.2.7,0,.3,0,.5-.1.6-.1.3-.3.4-.3.5-.2.2-.4.3-.5.3-.3.1-.5.1-.6.1-.5,0-.8-.2-.9-.3-.4-.3-.4-.7-.4-.9-.4.2-.5.4-.6.5-.2.3-.2.6-.2.8,0,.4.1.6.2.8.2.3.3.5.4.6.3.3.5.3.6.4.4.1.6.1.8.1.3,0,.5,0,.6-.1.4-.1.7-.2.8-.3.5-.2.8-.3.9-.4.5-.2.8-.3,1-.4.5-.2.7-.3.9-.4.4-.2.6-.2.7-.3v-2.8h3.2l1.2,1.5h0s-3,0-3,0v12.2c0,1.3.1,2.1.1,2.5,0,1.2.2,2.1.3,2.5l-1.4-.8c-.6-1.4-1.2-2.2-1.5-2.6-.8-1.2-1.5-1.9-1.9-2.2-1-1-1.9-1.5-2.3-1.7-1.3-.7-2.3-1-2.8-1.1l-1.5-2v-.2Z"/>
  <path class="st0" d="M243.4,9.2h9.3l1.1,1.5h0s-2,0-2,0c-.1,0-.2,0-.2,0-.1,0-.2,0-.3.1-.1,0-.2.1-.3.1-.1,0-.2.1-.2.1-.4.3-.7.6-.8.7-.4.4-.5.7-.6.9-.3.5-.4.8-.4,1-.1.5-.1.9-.1,1.1,0,1,.1,1.7.2,2,.2,1,.4,1.7.4,2,.2,1,.4,1.7.4,2,.2,1,.2,1.7.2,2,0,.9-.2,1.4-.4,1.6-.4.8-.8,1.2-1,1.4-.6.7-1.1,1-1.3,1.2-.7.5-1.2.7-1.5.8l-1-.7c.6-.2,1-.4,1.2-.5.6-.3.9-.6,1.1-.8.5-.5.7-.9.8-1.1.3-.6.3-1.1.3-1.3,0-1-.1-1.6-.2-2-.2-1-.4-1.6-.4-1.9-.2-1-.4-1.6-.4-1.9-.2-1-.2-1.6-.2-1.9,0-.8.1-1.3.2-1.5.2-.7.4-1.1.6-1.4.4-.6.7-1,.8-1.2.5-.6.9-.9,1.1-1.1h-5.3l-1.1-1.5h0Z"/>
  <path class="st0" d="M252.1,9.2h10.3l1.2,1.5h0c-.4,0-.7,0-.8,0-.4,0-.7,0-.8,0-.2,0-.5.1-.6.2-.3.2-.6.3-.7.4-.4.2-.6.4-.7.4-.3.2-.4.3-.5.4-.8.7-1.2,1.3-1.4,1.6-.6.9-.9,1.6-1,2-.4,1-.5,1.8-.6,2.1-.2,1.1-.2,1.8-.2,2.2,0,.5,0,1,0,1.2,0,.7.2,1.2.2,1.4.2.7.3,1.2.4,1.4.3.7.5,1,.7,1.2.4.5.8.8,1,.9.5.3,1,.3,1.3.3h.1c-.3-.3-.4-.6-.4-.8-.1-.4-.1-.7-.1-.8,0-.4,0-.6.1-.7.1-.3.3-.5.4-.6.3-.3.5-.3.6-.4.3-.1.6-.1.7-.1.4,0,.7.1.8.2.4.2.5.3.6.4.3.3.4.5.4.6.1.4.1.7.1.8,0,.6-.2.9-.2,1.1-.2.5-.5.7-.6.8-.4.3-.8.5-.9.5-.5.2-.9.2-1.1.2-1,0-1.6-.3-1.8-.4-.8-.4-1.2-.9-1.4-1.1-.6-.7-.9-1.3-1.1-1.6-.5-.9-.6-1.6-.7-1.9-.3-1-.4-1.6-.4-1.9-.1-1-.1-1.5-.1-1.8,0-1.1.1-1.9.2-2.2.2-1.1.5-1.9.7-2.2.4-1.1.9-1.7,1.1-2,.7-.9,1.2-1.4,1.5-1.6h-5l-1.1-1.5h0Z"/>
  <path class="st0" d="M266.1,10.7c2.3,1.4,3.1,2.7,3.5,3.4,1.2,2,1.2,3.8,1.2,4.7v.3c0,.2,0,.3,0,.3.8.8,1.3,1.5,1.6,1.8.7,1,1.1,1.7,1.3,2v-12.6s-7.5,0-7.5,0ZM277.6,9.2l1,1.5h0s-3.5,0-3.5,0v12.4c0,1.3,0,2.1.1,2.5,0,1.3.2,2.1.3,2.5l-1.2-.5c-.3-.9-.6-1.5-.7-1.8-.4-.9-.7-1.5-.9-1.8-.5-.9-.9-1.4-1.1-1.6-.6-.8-1.1-1.1-1.4-1.3-.4.7-.9,1.1-1.1,1.2-.7.5-1.3.5-1.6.5-.6,0-.9-.1-1.1-.2-.5-.2-.7-.4-.8-.5-.4-.3-.5-.7-.6-.8-.2-.5-.2-.9-.2-1.1,0-.5.1-.8.2-1,.2-.5.4-.7.5-.8.3-.3.7-.5.8-.5.5-.2.8-.2,1-.2.8,0,1.3.2,1.5.3.2-.4.2-.7.3-.9.1-.5.1-.8.1-.9,0-.7-.2-1-.2-1.2-.2-.5-.5-.7-.6-.9-.4-.4-.7-.5-.9-.6-.5-.3-.9-.4-1.1-.5-.6-.2-.9-.3-1.1-.3-.6-.2-.9-.2-1.1-.3-.4-.4-.5-.7-.6-.9-.3-.5-.4-.8-.5-1h-.2l-1-1.5h0s15.7,0,15.7,0Z"/>
  <path class="st0" d="M304.4,9.2l1,1.5h0s-12.7,0-12.7,0h-6.6l-1-1.5h0s19.3,0,19.3,0ZM287.6,13.3c.3.9.6,1.7.8,2.1.4,1.1.8,1.9,1,2.3.6,1.1,1,1.8,1.3,2.2.7,1.1,1.3,1.6,1.5,1.9.9.8,1.5,1.2,1.9,1.3,1,.5,1.8.5,2.2.5,1.1,0,1.7-.3,2-.4.9-.4,1.4-.9,1.6-1.2.7-.7.9-1.4,1.1-1.7.4-1,.4-1.7.4-2,0-.7-.1-1.2-.2-1.4-.2-.7-.4-1.1-.6-1.3-.4-.6-.8-.8-1-.9-.6-.4-1.1-.4-1.4-.4-.6,0-1,.2-1.2.3.4.3.6.7.6.8.2.5.2.8.2,1,0,.5-.1.8-.2.9-.2.4-.4.7-.5.8-.3.3-.6.5-.8.5-.5.2-.8.2-1,.2-.6,0-.9-.1-1.1-.2-.5-.2-.7-.4-.8-.6-.3-.4-.5-.7-.5-.8-.2-.5-.2-.9-.2-1.1,0-.8.3-1.3.4-1.5.4-.7.8-1,1-1.2.6-.5,1.1-.7,1.4-.8.8-.3,1.3-.3,1.5-.3,1.3,0,2,.4,2.4.6,1.1.6,1.6,1.2,1.8,1.5.8.9,1,1.7,1.2,2.1.4,1.2.4,2,.4,2.4,0,1.3-.3,2.2-.5,2.6-.5,1.2-1,1.8-1.3,2.1-.8.9-1.6,1.3-2,1.5-1.2.5-2.1.5-2.6.5-1.1,0-1.8-.2-2.1-.4-1-.4-1.5-.8-1.8-1-.8-.6-1.3-1.2-1.5-1.5-.7-.9-1.1-1.5-1.3-1.8-.6-1-.9-1.7-1.1-2.1-.5-1.1-.8-1.8-.9-2.1-.4-1.1-.6-1.7-.7-2.1-.3-1-.5-1.6-.6-1.9l1.1.4Z"/>
  <path class="st0" d="M321.6,10.7c-.3,0-.7,0-.8,0-.5,0-.8,0-1,0-.5,0-.8-.2-1-.2-.4-.2-.6-.4-.7-.5h0s0,13.1,0,13.1c0,1.3,0,2.2,0,2.6,0,1.3.2,2.2.3,2.6l-1.1-.7-.6-1.2c-.6-1.3-1.2-2-1.5-2.3-.9-1-1.6-1.4-2-1.7-1.1-.7-1.9-1-2.3-1.1-1.3-.4-2.2-.6-2.6-.7l-2.1-2.8h0c.6-.1,1.1-.3,1.4-.3.8-.2,1.4-.4,1.6-.5.8-.3,1.4-.6,1.6-.7.8-.4,1.2-.8,1.4-.9.6-.5.9-1,1-1.2.4-.6.4-1.2.4-1.4,0-.6-.2-.9-.3-1.1-.3-.5-.5-.7-.7-.8-.4-.3-.8-.4-.9-.5-.5-.2-.9-.2-1.1-.2-.4,0-.7,0-.9.1-.5.1-.7.2-.9.3-.4.2-.7.4-.8.5-.4.3-.6.5-.7.6.3,0,.4.2.5.2.2.2.4.3.4.4.2.2.2.4.3.5.1.3.1.5.1.6,0,.4-.1.7-.2.8-.2.3-.3.5-.4.6-.3.2-.5.3-.6.4-.4.1-.6.1-.8.1-.5,0-.7-.1-.8-.2-.4-.2-.5-.4-.6-.5-.2-.3-.3-.6-.4-.7-.1-.4-.1-.7-.1-.8,0-.6.2-1,.2-1.1.2-.5.5-.8.6-1,.4-.4.7-.7.9-.8.5-.3.9-.5,1.1-.6.6-.2,1-.3,1.2-.4.6-.1.9-.1,1.1-.1.9,0,1.5.2,1.8.3.9.3,1.3.7,1.5.9.7.6.9,1.1,1,1.4.4.8.4,1.5.4,1.8,0,1.1-.3,1.7-.5,2-.5.9-1,1.4-1.3,1.6-.8.7-1.4,1.1-1.8,1.2-1,.5-1.6.7-1.9.9v.2c2.2.7,3.3,1.5,3.8,1.9,1.7,1.2,2.5,2.3,3,2.9h0c0-.3,0-.5,0-.5,0-.3,0-.4,0-.5,0-3.3,0-5.5.1-6.5,0-3.3,0-5.4,0-6.5s0-1.4,0-1.7c0-.8-.1-1.4-.2-1.7h0s.9.4.9.4c.2.8.3,1.1.4,1.2.2.5.4.6.5.7.3.3.6.3.8.3.5,0,1,0,1.3,0l1.2,1.5h0Z"/>
  <path class="st0" d="M319.8,9.2h9.3l1.1,1.5h0s-2,0-2,0c-.1,0-.2,0-.2,0-.1,0-.2,0-.3.1-.1,0-.2.1-.3.1-.1,0-.2.1-.2.1-.4.3-.7.6-.8.7-.4.4-.5.7-.6.9-.3.5-.4.8-.4,1-.1.5-.1.9-.1,1.1,0,1,.1,1.7.2,2,.2,1,.4,1.7.4,2,.2,1,.4,1.7.4,2,.2,1,.2,1.7.2,2,0,.9-.2,1.4-.4,1.6-.4.8-.8,1.2-1,1.4-.6.7-1.1,1-1.3,1.2-.7.5-1.2.7-1.5.8l-1-.7c.6-.2,1-.4,1.2-.5.6-.3.9-.6,1.1-.8.5-.5.7-.9.8-1.1.3-.6.3-1.1.3-1.3,0-1-.1-1.6-.2-2-.2-1-.4-1.6-.4-1.9-.2-1-.4-1.6-.4-1.9-.2-1-.2-1.6-.2-1.9,0-.8.1-1.3.2-1.5.2-.7.4-1.1.6-1.4.4-.6.7-1,.8-1.2.5-.6.9-.9,1.1-1.1h-5.3l-1.1-1.5h0Z"/>
  <path class="st0" d="M342,13.1c.7-.1,1.1,0,1.3,0,.6.2.9.5,1.1.6.5.4.6.8.7,1,.3.6.3,1.1.3,1.3,1-1,1.7-1.7,2.1-2,1-1,1.7-1.7,2-2.1-.8-.6-1.3-.8-1.6-.9-.8-.3-1.5-.3-1.8-.3-1.3,0-2,.4-2.4.6-1.1.6-1.5,1.4-1.7,1.7ZM342.5,19.1c.3-.4.5-.6.7-.7.3-.4.5-.6.5-.7.2-.4.3-.7.4-.8.1-.4.1-.8.1-1,0-.3,0-.4,0-.5,0-.3-.1-.4-.2-.5-.1-.2-.3-.3-.3-.3-.2-.1-.4-.1-.5-.1-.4,0-.6,0-.7.1-.3.1-.4.2-.5.3-.2.1-.4.2-.5.3-.2.1-.4.1-.5.1-.3,0-.4,0-.5-.1-.3-.1-.4-.3-.4-.4-.2-.2-.3-.4-.3-.5-.1-.3-.1-.4-.1-.5,0-.4,0-.6.1-.7.1-.3.2-.6.3-.7.4-.8.8-1.2,1-1.4.6-.6,1.1-.9,1.4-1,.8-.4,1.3-.6,1.6-.7.9-.2,1.4-.2,1.7-.2,1.2,0,2,.3,2.3.5,1.1.5,1.7,1,2,1.3.9.8,1.3,1.5,1.5,1.8.6,1,.8,1.8.9,2.2h0c0-1.1,0-1.9,0-2.3,0-1.1,0-1.9,0-2.2,0-1,0-1.6,0-2,0-1-.1-1.6-.1-1.9h0s.9.6.9.6c.1.7.2,1,.3,1.2.2.4.4.6.5.7.3.2.7.3.8.3.5,0,1,0,1.2,0l1.2,1.5h0c-.4,0-.7,0-.9,0-.5,0-.8,0-1,0-.5,0-.8-.2-.9-.2-.4-.2-.6-.4-.8-.5h0s0,9,0,9c0,2.3,0,3.9,0,4.7,0,2.4.2,3.9.3,4.7l-1.2-.5c-.3-.9-.5-1.4-.6-1.6-.4-.7-.7-1-.9-1.2-.5-.5-1-.6-1.3-.7-.7-.2-1.4-.2-1.7-.2-1.2,0-2,0-2.4.1-1.2.1-2,.1-2.3.1-1.2,0-1.9-.3-2.2-.4-1-.4-1.5-.9-1.7-1.1-.7-.7-1-1.4-1.1-1.7-.4-1-.4-1.8-.4-2.2,0-.6,0-1,.1-1.2.1-.6.2-1,.3-1.1l.8.9c0,.2,0,.4,0,.4,0,.2,0,.4,0,.5,0,.9.2,1.4.3,1.7.3.7.7,1.1.8,1.3.5.5,1,.7,1.3.8.7.3,1.3.3,1.6.3,1,0,1.6,0,2,0,1,0,1.6,0,2,0,.7,0,1.2,0,1.4.1.7.1,1.1.3,1.3.4.6.3,1,.6,1.2.7.5.4.8.9,1,1.1h0c0-.3,0-.6,0-.7,0-.3,0-.5,0-.7v-5.3c0-.5,0-.9,0-1.1-.1-.6-.3-1-.4-1.3-.2-.6-.4-1-.5-1.2-.3-.6-.5-.8-.6-1-1.7,1.6-2.7,2.7-3.2,3.2-1.6,1.6-2.6,2.8-3.1,3.4l-1.9-.7v-.2Z"/>
  <path class="st0" d="M361.4,18.9c1.8,1,2.8,1.8,3.3,2.3,1.5,1.3,2.3,2.5,2.6,3h0c0-.3,0-.5,0-.6,0-.3,0-.5,0-.6v-12.4s-7.6,0-7.6,0c.7.4,1.2.8,1.5.9.7.5,1.2.9,1.4,1.1.7.6,1.1,1,1.3,1.3.6.7,1,1.1,1.2,1.3v.3c-1,.8-1.7,1.3-2,1.6-1,.8-1.6,1.3-2,1.6l.2.2ZM358.2,18.7v-.2c1.3-1,2.1-1.7,2.5-2,1.2-1,2.1-1.7,2.5-2-.4-.4-.8-.7-1-.8-.7-.4-1.2-.5-1.4-.6-.8-.3-1.3-.4-1.5-.5-.8-.2-1.1-.3-1.3-.3-.3-.4-.5-.7-.6-.8-.2-.4-.4-.7-.5-.8l-1-1.4h0s15.5,0,15.5,0l1,1.5h0s-3.5,0-3.5,0v12.8c0,1.2,0,2,0,2.4,0,1.2.2,2,.3,2.4l-1.2-.5c-.5-1.5-1-2.3-1.2-2.7-.7-1.1-1.4-1.7-1.7-2-1-.8-1.8-1.2-2.2-1.4-1.2-.6-2.3-.8-2.8-.9l-1.8-2Z"/>
  <path class="st0" d="M367.8,28.5c-.3-.2-.6-.2-.7-.3-.4,0-.6,0-.7,0-.4,0-.7,0-.9.1-.5.1-.7.3-.8.4-.4.2-.5.5-.6.6-.3.4-.3.7-.3.8,0,.7.3.9.4,1.1.4.4.9.4,1.1.4.6,0,.9-.2,1.1-.3.5-.3.7-.5.8-.7.3-.4.4-.8.5-1,.2-.5.2-.9.2-1.1ZM368.3,25c.3.6.4,1,.5,1.2.2.6.3,1.1.3,1.3.7.5,1.1.9,1.4,1,.7.6,1.1,1,1.3,1.2.6.6,1,1.1,1.2,1.3.6.6,1,1.1,1.1,1.3v1.4c-1.1-1.2-1.9-2-2.3-2.4-1.2-1.1-2.1-1.8-2.5-2.1,0,.6-.2,1.1-.3,1.3-.3.6-.6.9-.7,1.1-.5.5-.8.6-1,.7-.6.3-1,.3-1.3.3-.7,0-1.1-.2-1.3-.2-.6-.2-.9-.5-1-.7-.4-.4-.6-.8-.7-1-.3-.6-.3-1-.3-1.3,0-.6.2-1,.3-1.2.3-.5.7-.8.8-.9.5-.4.9-.5,1.1-.6.6-.2,1-.2,1.2-.2.8,0,1.3.2,1.6.3,0-.4,0-.7-.1-.8,0-.4-.1-.6-.2-.8l.8-.3Z"/>
  <path class="st0" d="M370.5,9.2h3.5c0-.4-.2-.5-.3-.6-.2-.2-.4-.4-.5-.5-.3-.3-.4-.5-.5-.6-.3-.3-.4-.6-.4-.8.2-1.2.7-1.8.9-2.1.7-1,1.4-1.4,1.7-1.6,1-.7,1.8-.9,2.2-1,1.2-.4,1.9-.4,2.3-.4,1.5,0,2.4.3,2.8.4,1.4.4,2.2.9,2.6,1.1,1.2.7,2,1.3,2.4,1.6,1.1.9,1.8,1.6,2.1,2h-1.2c-.8-.8-1.4-1.2-1.7-1.4-.9-.7-1.6-1-1.9-1.1-1-.5-1.7-.7-2.1-.8-1.1-.3-1.9-.3-2.2-.3-.9,0-1.6.2-1.9.3-1,.3-1.6.6-1.8.8-.9.5-1.3,1-1.5,1.2-.7.7-.9,1.4-.9,1.7.1.3.3.5.3.6.2.3.3.4.4.5.2.3.3.4.4.5.2.3.3.5.3.6h2.6l1.1,1.5h0s-3.6,0-3.6,0c0,4.4,0,7.3,0,8.7,0,4.3.1,7.2.1,8.7,0,0-.2-.1-.3-.2-.2-.2-.4-.3-.5-.4-.3-.2-.5-.3-.6-.4-.3-.2-.3-.2-.3-.2,0-4.1,0-6.8,0-8.2,0-4.1,0-6.8,0-8.2h-2.5l-1.1-1.5h0Z"/>
  <path class="st0" d="M403.1,9.2l1,1.5h0s-12.7,0-12.7,0h-13l-1-1.5h0s25.7,0,25.7,0ZM379.6,12.3c.3,1.2.7,2.1.8,2.6.5,1.4,1,2.4,1.2,2.8.7,1.4,1.3,2.3,1.6,2.7.9,1.3,1.6,2,2,2.3,1.1,1,2,1.4,2.4,1.6,1.3.6,2.3.6,2.8.6s.9,0,1.1-.1c.6-.1.9-.3,1.1-.4.5-.3.7-.6.8-.7.3-.4.3-.9.3-1.1,0-.7-.3-1-.4-1.2-.4-.5-.8-.7-1-.8-.7.4-1.2.4-1.4.4-.8,0-1.2-.3-1.3-.5-.5-.5-.5-1-.5-1.3s0-.6.1-.7c.1-.3.3-.5.4-.6.2-.2.5-.3.6-.4.3-.1.6-.1.7-.1.8,0,1.2.3,1.4.5.5-.4.8-.8.9-.9.3-.6.3-1,.3-1.2,0-.6-.1-.9-.2-1.1-.2-.5-.4-.7-.6-.8-.4-.3-.7-.4-.8-.5-.5-.2-.9-.2-1.1-.2-.7,0-1.2.1-1.4.2-.7.2-1.2.4-1.4.6-.7.4-1,.7-1.2.9-.5.5-.7,1-.8,1.2.3,0,.6.1.7.2.3.1.5.3.6.4.2.2.3.4.4.5.1.3.1.5.1.7,0,.4-.1.6-.2.7-.2.3-.4.5-.4.5-.3.2-.5.3-.6.3-.4.1-.6.1-.7.1-.5,0-.8-.1-.9-.2-.4-.2-.6-.5-.6-.6-.2-.4-.3-.7-.4-.8-.1-.5-.1-.8-.1-.9,0-.7.2-1.2.3-1.4.3-.7.7-1,.8-1.2.5-.6,1-.9,1.2-1,.7-.5,1.2-.7,1.4-.8.7-.3,1.2-.4,1.5-.5.7-.2,1.2-.2,1.4-.2.9,0,1.5.2,1.7.3.8.3,1.2.7,1.4.9.6.6.8,1.1.9,1.3.3.8.4,1.4.4,1.7.3-.5.6-.8.7-.9.4-.4.7-.6.8-.7.5-.3.8-.4,1-.5.5-.2.9-.2,1.1-.2.8,0,1.3.2,1.5.3.7.3,1,.7,1.2.8.5.5.7,1,.8,1.2.3.7.3,1.2.3,1.5,0,.7-.2,1.2-.3,1.4-.3.7-.6,1-.7,1.2-.5.5-.9.7-1.1.8-.6.3-1.1.3-1.4.3-.9,0-1.2-.4-1.4-.5-.5-.5-.5-1.1-.5-1.4s0-.5.1-.6c.1-.3.3-.4.4-.5.2-.2.4-.3.5-.4.3-.1.5-.1.6-.1.6,0,.9.2,1.1.3.4.3.5.8.5,1,.5-.2.7-.4.8-.6.3-.4.3-.8.3-.9,0-.5-.1-.8-.2-.9-.2-.4-.5-.6-.6-.7-.4-.3-.7-.4-.8-.4-.5-.2-.8-.2-.9-.2-.6,0-1.1.1-1.3.2-.6.2-1,.5-1.2.6-.6.4-.8.7-1,.9-.4.5-.6.9-.7,1.1-.2.3-.3.5-.3.6-.1.3-.3.5-.4.6.2.4.4.7.5.8.2.4.4.7.4.9.2.5.3.8.3.9.1.5.1.8.1.9,0,1-.3,1.4-.4,1.7-.4.7-.8,1-1,1.2-.6.5-1.2.7-1.5.7-.8.2-1.4.2-1.7.2-1.3,0-2.1-.3-2.5-.4-1.1-.4-1.8-.9-2.1-1.1-1-.7-1.6-1.4-1.9-1.7-.9-1-1.3-1.8-1.6-2.1-.7-1.1-1.1-2-1.3-2.4-.6-1.2-.9-2.1-1.1-2.5-.5-1.2-.7-2-.8-2.4-.4-1.2-.5-1.9-.6-2.2l1,.3Z"/>
  <path class="st0" d="M402.4,9.2h10.3l1.2,1.5h0c-.4,0-.7,0-.8,0-.4,0-.7,0-.8,0-.2,0-.5.1-.6.2-.3.2-.6.3-.7.4-.4.2-.6.4-.7.4-.3.2-.4.3-.5.4-.8.7-1.2,1.3-1.4,1.6-.6.9-.9,1.6-1,2-.4,1-.5,1.8-.6,2.1-.2,1.1-.2,1.8-.2,2.2,0,.5,0,1,0,1.2,0,.7.2,1.2.2,1.4.2.7.3,1.2.4,1.4.3.7.5,1,.7,1.2.4.5.8.8,1,.9.5.3,1,.3,1.3.3h.1c-.3-.3-.4-.6-.4-.8-.1-.4-.1-.7-.1-.8,0-.4,0-.6.1-.7.1-.3.3-.5.4-.6.3-.3.5-.3.6-.4.3-.1.6-.1.7-.1.4,0,.7.1.8.2.4.2.5.3.6.4.3.3.4.5.4.6.1.4.1.7.1.8,0,.6-.2.9-.2,1.1-.2.5-.5.7-.6.8-.4.3-.8.5-.9.5-.5.2-.9.2-1.1.2-1,0-1.6-.3-1.8-.4-.8-.4-1.2-.9-1.4-1.1-.6-.7-.9-1.3-1.1-1.6-.5-.9-.6-1.6-.7-1.9-.3-1-.4-1.6-.4-1.9-.1-1-.1-1.5-.1-1.8,0-1.1.1-1.9.2-2.2.2-1.1.5-1.9.7-2.2.4-1.1.9-1.7,1.1-2,.7-.9,1.2-1.4,1.5-1.6h-5l-1.1-1.5h0Z"/>
  <path class="st0" d="M431.5,9.2l1,1.5h0s-12.7,0-12.7,0h-6.6l-1-1.5h0s19.3,0,19.3,0ZM414.7,13.3c.3.9.6,1.7.8,2.1.4,1.1.8,1.9,1,2.3.6,1.1,1,1.8,1.3,2.2.7,1.1,1.3,1.6,1.5,1.9.9.8,1.5,1.2,1.9,1.3,1,.5,1.8.5,2.2.5,1.1,0,1.7-.3,2-.4.9-.4,1.4-.9,1.6-1.2.7-.7.9-1.4,1.1-1.7.4-1,.4-1.7.4-2,0-.7-.1-1.2-.2-1.4-.2-.7-.4-1.1-.6-1.3-.4-.6-.8-.8-1-.9-.6-.4-1.1-.4-1.4-.4-.6,0-1,.2-1.2.3.4.3.6.7.6.8.2.5.2.8.2,1,0,.5-.1.8-.2.9-.2.4-.4.7-.5.8-.3.3-.6.5-.8.5-.5.2-.8.2-1,.2-.6,0-.9-.1-1.1-.2-.5-.2-.7-.4-.8-.6-.3-.4-.5-.7-.5-.8-.2-.5-.2-.9-.2-1.1,0-.8.3-1.3.4-1.5.4-.7.8-1,1-1.2.6-.5,1.1-.7,1.4-.8.8-.3,1.3-.3,1.5-.3,1.3,0,2,.4,2.4.6,1.1.6,1.6,1.2,1.8,1.5.8.9,1,1.7,1.2,2.1.4,1.2.4,2,.4,2.4,0,1.3-.3,2.2-.5,2.6-.5,1.2-1,1.8-1.3,2.1-.8.9-1.6,1.3-2,1.5-1.2.5-2.1.5-2.6.5-1.1,0-1.8-.2-2.1-.4-1-.4-1.5-.8-1.8-1-.8-.6-1.3-1.2-1.5-1.5-.7-.9-1.1-1.5-1.3-1.8-.6-1-.9-1.7-1.1-2.1-.5-1.1-.8-1.8-.9-2.1-.4-1.1-.6-1.7-.7-2.1-.3-1-.5-1.6-.6-1.9l1.1.4Z"/>
  <g>
    <path class="st0" d="M174.3,77c0,0,0-.1.2-.2-.2-.2-.4-.4-.5-.6l-.2.2c.2.2.4.4.8.4,0,0-.1.1-.2.2.2.2.4.4.5.6,0,0,.2-.2.2-.2-.2-.2-.4-.4-.8-.4M165.8,59.3v-4.4h2c1.2,1.2,2.5,2.5,4,4,.6-.4,1.2-.8,1.9-1.2v-8.3c2.4,2,2.7,2.5,3.2,5.4,1.2,0,2.4.6,3.3-.6,1.2.5,2.3.9,3.4,1.4-.2,1-.4,1.7-.5,2.5-.2.7-.4,1.4-.6,2.1-1.1-.2-2.1-.3-2.9-.5-.8-.2-1.6-.6-2.4-.8-.7,1.3-1.3,2.5-2,3.9,0,0,0,.3,0,.5.2.6.8,1.1.7,1.6-.4,2.8,1.9,5.4.5,8.2-.3.5-.5,1.2-.4,1.8.1,1.1.6,2.1.7,3.2.1,1.3-.4,2.9.2,3.9.6.9-.5,1.9.6,2.8.3.2-.4,1.8-.7,2.9.2.2.4.6.8,1.1-.4.8-.8,1.7-1.3,2.6-.3-.6-.5-1.1-.8-1.6-.2.2-.4.4-.6.6-.2,0-.5-.1-.5-.2-.3-.8-.5-1.6-.9-2.4-.9-2.1-2.5-4.1-.7-6.5,0-3.8,0-7.6,0-11.4,0-1.3-.4-2.5-.6-3.6-.6-3-2.3-4.5-4.8-5.7-.6-.2-1.1-.7-1.6-1"/>
    <path class="st0" d="M222.4,77c0,0,.1-.1.2-.2-.2-.2-.4-.4-.5-.6l-.2.2c.2.2.4.4.8.4,0,0-.1.1-.2.2.2.2.4.4.5.6,0,0,.2-.2.2-.2-.2-.2-.4-.4-.8-.4M213.8,59.3v-4.4h2c1.2,1.2,2.5,2.5,4,4,.6-.4,1.2-.8,1.9-1.2v-8.3c2.4,2,2.7,2.5,3.2,5.4,1.2,0,2.4.6,3.3-.6,1.2.5,2.3.9,3.4,1.4-.2,1-.4,1.7-.5,2.5-.2.7-.4,1.4-.6,2.1-1.1-.2-2.1-.3-2.9-.5-.8-.2-1.6-.6-2.4-.8-.7,1.3-1.3,2.5-2,3.9,0,0,0,.3,0,.5.2.6.8,1.1.7,1.6-.4,2.8,1.9,5.4.5,8.2-.3.5-.5,1.2-.4,1.8.1,1.1.6,2.1.7,3.2.1,1.3-.4,2.9.2,3.9.6.9-.5,1.9.6,2.8.3.2-.4,1.8-.7,2.9.2.2.4.6.8,1.1-.4.8-.8,1.7-1.3,2.6-.3-.6-.5-1.1-.8-1.6-.2.2-.4.4-.6.6-.2,0-.5-.1-.5-.2-.3-.8-.5-1.6-.9-2.4-.9-2.1-2.5-4.1-.7-6.5,0-3.8,0-7.6,0-11.4,0-1.3-.4-2.5-.6-3.6-.6-3-2.3-4.5-4.8-5.7-.6-.2-1.1-.7-1.6-1"/>
    <path class="st0" d="M145,65.8c-.2,0-.5,0-.7,0,0,.4.2.9.3,1.3.1,0,.3,0,.4,0v-1.3ZM140.6,69.7c2.7-.4,1.9-2.7,2.4-4.2-.8.7-1.5,1.5-2.5,2.5,0,.3,0,1,.2,1.8M150,69.6c3.2-1.6,6-3.1,7.6-6.7,4.3,3.9,4.6,8.8,4.1,13.9-.6,1.2-1.1,2.4-1.7,3.6-1.7,3.6-4.8,5.6-8.3,6.3-2.5.5-5.5-.3-7.6-2.3-1.5-1.4-3.2-2.6-4-4.6-.2-.5-1-.7-1.7-1.1-2.6-5.2-7.4-9.3-9.9-15.1.4-.2.7-.4,1.2-.6,3.3,7.2,8.5,12.6,14.8,17.8,2.5.2,5.4.5,8.1.7,1.1-2.9,3.6-4.1,5.3-6.4v-1.7c.7.4,1.2.7,2,1.1.1-1,.2-1.7.3-2.4-1.8-.4-3.5-.8-5.5-1.2,0,.8,0,1.4-.1,2.2-2,.8-4.1,1.7-6,2.5-1.4-.3-2.6-.6-4-.9-.1-.3-.4-.8-.6-1.3-.3.3-.6.5-.9.7-1.2-1.2-2.3-2.3-3.5-3.5.4-1.4,0-3,.6-4.7.6-1.8,2.9-1.6,2.9-3.9,1.7.8,3.2,1.5,4.9,2.3.6,1.5,1.3,3.3,1.9,5.2,0,0-.1,0-.2-.1-.2.2-.4.4-.6.5,0,0,.2.2.2.2.2-.2.4-.4.6-.7"/>
    <path class="st0" d="M153.8,57.5h.8v-.3h-.8v.3ZM155,55.3c.2-.2.5-.7.8-.7,3.2,0,6.5,0,10.1,0-.3.8-.4,1.3-.7,2,.1.3.4.8.6,1.3-.4.4-.7.8-1.1,1.2-.3,0-.5.2-.7.2-3.4,0-6.7.3-10.1-.7-.7-.2-1.8.7-2.2.4-.9-.6-1.7-.4-2.6-.4-.4,0-.8.5-1.4.8-.5-.2-1.2-.6-1.8-.9-1.2-.5-2.4,1.1-3.6.2-.8,1.2-2.4-1.4-3,.6-1.1-.1-2.4.5-3.1-.8-3.2,1.6-6.4.5-10,.9.3-.9.5-1.5.7-1.9-.2-.9-.5-1.7-.7-2.4.4-.2.6-.5.8-.4,1.5.3,3.1-.7,4.5.7.3.3,1.2,0,1.8-.2.7-.1,1.5-.2,2.1-.6,1.2-.7,2.2,1.5,3.3,0,1.1.9,2.2,0,3.3,0,1.2,0,2.4,0,3.5,0h3.9c1,0,2.1,0,3.1,0,.7,0,1.4.4,2.5.8"/>
    <path class="st0" d="M188.6,55.5h-.3v.8h.3v-.8ZM200.6,57.9c-2.1,0-4.1,0-6.2,0-1.4,0-2.1.6-2.5,2,1.6,1.1,2.3,3,4.4,3.6,1.8.5,2.8,2.9,5.5,2.1-.4-2.6-.8-5-1.2-7.7M200.4,78.5c.8-2.5-.6-5.1,1.1-7.2-.4-.8-.8-1.5-1.2-2.3-1.3-.3-2.6-.7-4-1.1-.7,1.1-1.2,2.1-1.9,2.9-.7.7-1.7,1.2-2.9,2.1,3,2.2,5.5,4.4,9,5.6M183.3,73v-1.8c.6-.9,1.2-1.8,1.9-2.8,1.6-.9,3.3-1.9,5.1-3v-2.5c-3-1.3-4.9-4.5-8.5-5.5v-4.2h30.4c2.9,1.5-.5,3.5.6,5.6-2.1-.5-3.7-.8-5.3-1.2-.6.8-1.2,1.5-2,2.5,0,.3.3,1.2.5,2.3-.9,2-.8,6.2.2,8.4,0,0-.2.2-.3.3-.8,2.4-.8,10.1.3,12.1.8,1.3,2,2.3,3.2,3.6h-2.6c-2.6-1.9-5-4.2-7.9-5.7-2.1-1.1-4.4-2.2-6.8-2.7-3.7-.7-6.6-2.3-8.9-5.5"/>
    <path class="st0" d="M15.6,69.3c-1.3,1.5-2.2,2.7-3,3.6,2.2,2,4.2,3.9,6.1,5.7.6,0,1.1,0,1.8-.1-.4-.6-.6-.9-.8-1.2,1.4-3.5.6-7,.6-10.9-1.9,1.1-3.5,2.1-4.8,2.9M28.5,86.9c-2.4,0-3.2-2.1-4.7-3.1-1.6-1.1-3.4-2-5.1-2.9-1.6-.8-3.3-1.7-4.9-2.4-1.7-.7-3.5-1.2-5.3-1.8-1-1-2.2-2.2-3.6-3.6v-2c4.4-2.7,7.7-7.1,13.3-8.7.4-.4,1-1,1.9-1.9-.3-.8-.7-1.7-1.1-2.8-1.4.3-2.6.6-4,.9-1.9-1.3-4.3-.5-6.6-.6-2.4-.1-4.7,0-7.1,0-.5-1.2-1.5-2.3-1.1-3.9h30.4c.4.5,1.1,1.3,1.9,2.4-.2.3-.7.9-1.1,1.5h-5.7c-.3.4-.7.7-1,1.1-.7,2.9.8,6-.9,8.7,1.5,1.8.6,4,.7,6,.1,2.1,0,4.2,0,6.3.1,1.9.6,3.7,2.2,5,.6.5,1.2,1.2,1.8,1.7"/>
    <path class="st0" d="M39.7,77c0,0,.1-.1.2-.2-.2-.2-.4-.4-.5-.6l-.2.2c.2.2.4.4.8.4,0,0-.1.1-.2.2.2.2.4.4.5.6,0,0,.2-.2.2-.2-.2-.2-.4-.4-.8-.4M31.1,59.3v-4.4h2c1.2,1.2,2.5,2.5,4,4,.6-.4,1.2-.8,1.9-1.2v-8.3c2.4,2,2.7,2.5,3.2,5.4,1.2,0,2.4.6,3.3-.6,1.2.5,2.3.9,3.4,1.4-.2,1-.4,1.7-.5,2.5-.2.7-.4,1.4-.6,2.1-1.1-.2-2.1-.3-2.9-.5-.8-.2-1.6-.6-2.4-.8-.7,1.3-1.3,2.5-2,3.9,0,0,0,.3,0,.5.2.6.8,1.1.7,1.6-.4,2.8,1.9,5.4.5,8.2-.3.5-.5,1.2-.4,1.8.1,1.1.6,2.1.7,3.2.1,1.3-.4,2.9.2,3.9.6.9-.5,1.9.6,2.8.3.2-.4,1.8-.7,2.9.2.2.4.6.8,1.1-.4.8-.8,1.7-1.3,2.6-.3-.6-.5-1.1-.8-1.6-.2.2-.4.4-.6.6-.2,0-.5-.1-.5-.2-.3-.8-.5-1.6-.9-2.4-.9-2.1-2.5-4.1-.7-6.5,0-3.8,0-7.6,0-11.4,0-1.3-.4-2.5-.6-3.6-.6-3-2.3-4.5-4.8-5.7-.6-.2-1.1-.7-1.6-1"/>
    <path class="st0" d="M107,77c0,0,.1-.1.2-.2-.2-.2-.4-.4-.5-.6l-.2.2c.2.2.4.4.8.4,0,0-.1.1-.2.2.2.2.4.4.5.6,0,0,.2-.2.2-.2-.2-.2-.4-.4-.8-.4M98.4,59.3v-4.4h2c1.2,1.2,2.5,2.5,4,4,.6-.4,1.2-.8,1.9-1.2v-8.3c2.4,2,2.7,2.5,3.2,5.4,1.2,0,2.4.6,3.3-.6,1.2.5,2.3.9,3.4,1.4-.2,1-.4,1.7-.5,2.5-.2.7-.4,1.4-.6,2.1-1.1-.2-2.1-.3-2.9-.5-.8-.2-1.6-.6-2.4-.8-.7,1.3-1.3,2.5-2,3.9,0,0,0,.3,0,.5.2.6.8,1.1.7,1.6-.4,2.8,1.9,5.4.5,8.2-.3.5-.5,1.2-.4,1.8.1,1.1.6,2.1.7,3.2.1,1.3-.4,2.9.2,3.9.6.9-.5,1.9.6,2.8.3.2-.4,1.8-.7,2.9.2.2.4.6.8,1.1-.4.8-.8,1.7-1.3,2.6-.3-.6-.5-1.1-.8-1.6-.2.2-.4.4-.6.6-.2,0-.5-.1-.5-.2-.3-.8-.5-1.6-.9-2.4-.9-2.1-2.5-4.1-.7-6.5,0-3.8,0-7.6,0-11.4,0-1.3-.4-2.5-.6-3.6-.6-3-2.3-4.5-4.8-5.7-.6-.2-1.1-.7-1.6-1"/>
    <path class="st0" d="M90.7,60.9h.3v-.8h-.3v.8ZM84.2,76.6c-1.5,4.5-4.9,5.3-9.2,4.7-2.6-1.2-3.3-2.8-6.7-8.2-.2-4.1,2-7.2,4.1-10.5h4c1.4,1,2.9,2.1,4.7,3.4.9-1.3,1.7-2.3,2.6-3.5h5.2c.3-.9.7-1.8,1-2.6-.6-.6-1-1-1.5-1.5h-22.2q0-2.2.9-3.8c7.8,0,15.8,0,23.8,0,1.2,0,2.4-.3,4.1-.5.1,0,.6.3,1.2.7.3-.3.6-.5,1-.8.9.1,1.2,1.2,1.2,4.6h-3.4c-.6.6-.8.8-1.1,1.1,0,2.3,0,4.5,0,6.6,0,.3.4.6.7.9-1.3,1.9-.8,4-.8,6.1,0,2.1,0,4.2,0,6.3v6.4c-.3.3-.7.6-1.3,1.1-.8-1.1-1.7-2.3-2.6-3.4v-15.8c-.7-.7-1.4-1.5-2.3-2.4-1.6,1.2-3.1,2.3-4.8,3.5h-2.6c-1-.5-1.8-.9-2.3-1.2-1.4.2-2.8.4-4.3.7-.6,1.8-2.9,3.1-2.7,5.6.1,2,1.5,3.1,2.7,4.3h2.8c0-1,0-1.9.1-2.7.6-.6,1.2-1.2,1.8-1.8h4c.7.9,1.3,1.9,2,2.9"/>
    <path class="st0" d="M51.8,71.8l1.5-1.5c1.1.5,2.9.9,3.3,1.7.6,1.4,1.9,1.5,2.6,2.4.7.9,1.3,1.8,2.3,2.6,1.6,1.2,2.6,3.1,4,5v1.3c1.5,0,1.6,1.5,2.4,2.3-.3.3-.7.7-1.3,1.3-2-1.6-4-3.3-6.2-4.7-2.1-1.5-4.4-2.7-6.6-4.1-.5-.3-1.1-.6-1.6-.8-.2-1.9-.4-3.7-.6-5.5"/>
    <path class="st0" d="M59.6,53c1.7.5,2.6,1.7,2.9,3.6h-6c-.5.8-1,1.5-1.9,2.9v2.6c4.3,1.2,6.5-1.8,8.9-5,1.2,2.5.1,4.3-.4,6.2-.9.8-1.8,1.7-3.1,3h-3.2c-3.4-.3-3.4-3.9-5.4-5.9v-2.3c1.4-1.3,2.9-2.8,4.7-4.4,1-.2,2.5.7,3.5-.6"/>
    <path class="st0" d="M261.2,56.7h.8v-.3h-.8v.3ZM284.5,53.8c.2.5.4,1,.6,1.6.1,0,.2-.2.3-.2v-1.4h-1ZM262.8,57.9c1.1,1.5,2.3,3,3.5,4.6,2.7.3,5.5-2.3,8.3.7.2.7.6,1.8,2.2,1.7v-6.9l-1-1c-1.5,0-3.4.5-4.8-.1-1.3-.6-2.7.3-3.8-.6-1.3,2.1-2.9-1.4-4.4.3v1.4ZM281.4,83.7c-.4.3-.7.6-1,.8-.4,0-.6,0-.6,0-1.6-1.5-3.3-2.8-3.6-5.2,0-.5,0-1.1,0-1.6.1-1.4.4-2.8.4-4.3,0-1.4-.4-2.8-.6-4.6-.7-1.5-1.8-3.3-4.3-3.9-2.9,2.7-5,6.1-5,10.3-.7.6-1.3,1.2-2.3,2.1-.5.2-1.7.8-2.9.8-1.2,0-2.4-.5-3.5-.8-1.2-1.3-2.4-2.5-3.8-3.9-.4-.9-.9-2.3-1.5-3.9.4,0,1,.2,1.4.3,1,.4,2,.9,2.9,1.3,1.2-.7,2.3-1.1,3-1.8.7-.6,1-1.7,1.8-3v-3c-2-3.8-6.4-4.4-10.1-6.6h-3.1v-3.5l1.1-1.1c2.8,0,5.8,0,8.8,0,1.2,0,2.3,1,3.6.8,1-.2,2.1,0,3-.5.7-.4,1.5,1.1,2.1-.2,0-.2,1.5.2,2.4.3.7-.1,1.6-.5,2.4-.4,1.6.1,3.2.7,4.8.7s3.2-.5,4.8-.7c1.3-.1,2.6,0,4.1,0,.5,1.3,1,2.5,1.6,3.8-2,.4-3.9.8-6.3,1.2,0,1,0,2.3,0,3.5,0,1.2.5,2.6-.7,3.7-.3.2-.2,1,0,1.5,1.6,5,.4,10.1.8,15.1,0,.8.3,1.6.5,2.7"/>
    <path class="st0" d="M306.8,72.5c-1.2-1.7-2.4-3.4-3.7-5.4,0-.2.4-.8.6-1.4-.6-.9-1.2-1.8-1.9-2.9,0-.5-.1-1.3-.2-2.1-1.8-1.9-4.9-2.3-6.4-5.2,4.5-.3,8.6-1.7,13-.4,0,6,0,11.9,0,18.3-.6-.3-1.2-.4-1.4-.8M298.6,69.9v-.4s1.5-.2,1.5-.2c0,.1,0,.3,0,.4-.5,0-1,.1-1.6.2M295.1,75.7c.7-.6,1.3-1.1,2.2-1.9.1,1.2.2,2,.3,3.1-1-.5-1.6-.8-2.5-1.2M315.9,51c-.5,0-1,0-1.5-.1-.2,0-.4,0-.6,0-.2,0-.4,0-.6,0-.2,0-.3,0-.5,0s0,0-.1,0c0,0,0,0-.2,0-.3,0-.6,0-.9,0-.3,0-.6,0-.9,0s-.3,0-.5,0c-.8.2-1.7.3-2.7.3s-1.1,0-1.6-.1c-1.2.4-2.4.7-3.9.7s-.9,0-1.3-.1c-.5,0-1,.1-1.6.1s-1.3,0-1.9-.2c-.6,0-1.2.2-1.8.2s-1.7,0-2.4-.2c-1.8.2-3.5.4-5.3.5-.3,0-.6.5-.9.7-.4-.3-.6-.4-.8-.6,0,0-.2.2-.2.3.1,1.1.2,2.3.3,3.4,3.4-.1,5.2,3.2,8,4,.3-.3.5-.4.7-.6.2.5.4.9.7,1.5.8,0,1.7-.2,1.9-.2,1.3.8,2.1,1.2,2.8,1.7,0,1.1.1,2,.2,2.8-1.7-.1-3-.2-4.4-.3-1.6-.1-2.9.7-3.7,1.3-.9,1.9-1.6,3.3-2.2,4.6-.5,1.8.3,3.4,1.3,4.7,1.4,1.8,3.4,2.5,5.6,2.6,3.8-.3,5.1-3.1,6.7-5.6,0-.1.3-.1.6-.2.4.6.7,1.4,1.2,1.9,2.9,2.5,5.2,5.4,7.6,8.3.3.4,1,.4,1.9.7-1.3-2.5-2.4-4.6-2.4-7,0-1.2,0-2.4-.4-3.5-.3-.9,1.4-1.8-.2-2.5,1.1-1,.5-2.2.4-3.3,0-1-.2-2.1-.3-3.1-.1-1.2-.3-2.4-.3-3.5,0-.4.3-.9.4-.9-.3-1.1-.6-1.8-.7-2.1.7-1.2,1.2-1.9,1.6-2.5,1.7-.3,3.5.2,4.1-1.5,0-.7-.1-1.3-.2-1.9-.4,0-.8,0-1.2,0"/>
    <path class="st0" d="M297.5,67.3c0,0,0,.2,0,.3.3,0,.5,0,.8,0,0,0,0-.2,0-.3-.3,0-.5,0-.8,0"/>
    <path class="st0" d="M297.5,76.9c-1-.5-1.6-.8-2.5-1.2.7-.6,1.3-1.1,2.2-1.9.1,1.2.2,2,.3,3.1"/>
    <path class="st0" d="M298.6,69.5c.5,0,1-.1,1.6-.2,0,.1,0,.3,0,.4-.5,0-1,.1-1.6.2,0-.1,0-.3,0-.4"/>
    <path class="st0" d="M297.5,67.3c.3,0,.5,0,.8,0,0,0,0,.2,0,.3-.3,0-.5,0-.8,0,0,0,0-.2,0-.3"/>
    <path class="st0" d="M377.8,52.3h.3v-.8h-.3v.8ZM355.3,69.5c2.6,1.8,5.1,3.4,8,5.4,0-2.5,0-4.4,0-6.3,0-2,0-4.1,0-6.4-3.8,1.4-5.9,4-7.9,7.3M363.2,56.2c-5-2.7-9.9-.8-14.1-1.9-.6-.3-1.2-.6-2.4-1.1,1.5-.8,2.4-1.4,3.3-1.9-.2-.2-.3-.4-.5-.5h30.9c.4.3.9.8,1.3,1.1-.4,1-.8,1.8-1.2,2.7h-11.9c-.5.5-.9.9-1.4,1.4.7.4,1.3.9,2,1,2.8.6,5.2,2.1,7,4,1.6,1.6,3,4.3,2,6.8-1.1,2.7-3.1,5-6.4,5.1-.3,0-.5,0-.8,0-1.5-1.3-2.2-3-2-5,.7-.6,1.4-1.2,2.1-1.7,1.2-.8,3,.5,4-1.4-.2-1.1-.5-2.3-.7-3.6-1.8-.4-3.8-.7-5.9-1.2-.6,1.4-1.1,2.6-1.6,3.8.2.2.4.5.8.9-.3.5-.6,1-.8,1.3.2,1.3.6,2.3.6,3.4,0,1.2.4,2.5-.6,3.7-.4.5,0,1.7.1,2.6.2.8.5,1.6.8,2.3,1.6,1.3,3.2,2.6,4.9,4.1-.7.8-1.2,1.3-1.7,1.8-7-4.9-13.8-9.6-20.8-14.5v-2.6c3.6-4.1,7.9-7.5,13.2-10.7"/>
    <path class="st0" d="M397.1,75.5c1.6-.7,2.4-1.4,2.1-2.6-.3-.9-1.4-2-.7-2.8.9-1,.8-1.7,0-2.5,1.7-1.9.2-3.4-.3-4.5-2.2,2.2-4.5,4.5-7,7,1.7,1.8,5,2.2,5.8,5.5M378.8,55.7v-3.8c.4-.4.6-.6,1.1-1.1h6c2,0,3.9,0,5.9,0,1.9,0,3.9.3,5.8.3,1.9,0,3.8-.3,5.8-.3,2.1,0,4.2,0,6.3,0q1.6,1.8.3,3.8h-5.6c-.5.5-.9.9-1.3,1.3,0,6.5,0,13.1,0,19.7,0,2.7.7,5,3.5,6,.2,0,.3.6.4,1,0,0,0,.2-.3.7-2.2-1.6-4.4-3.1-6.3-4.4-2.3-1-4.3-1.9-6.3-2.6-1.8-.6-3.7-1.3-5.6-1.8-2.5-.7-4.8-2.1-5.8-5.1.5-2,2.8-2.6,4.1-4.2,1.3-1.6,3.3-2.3,4.8-3.4,1.8-1.3,3.4-2.6,5.8-2.1v-3.9h-18.8Z"/>
    <path class="st0" d="M389.4,81.6c2.3,0,4.6-.4,6.6,1.9.6,2.4-.7,4.2-2.8,6.1-1.4-.2-3.1-.5-4.6-.8-1.8-4.6-1.5-3.5.8-7.2"/>
    <path class="st0" d="M418.7,69.7h-.3v.8h.3v-.8ZM428.7,73.7h.3v-.8h-.3v.8ZM431.6,82.8c-.4.4-.7.7-1.2,1.2-1.1-1.5-2.3-3-3.6-4.6.4-2.6-.6-5.6.6-8.8-.1-.7-.8-2.2-.4-2.8,1-1.3-.7-1.9-.3-3,.3-.9-.5-2.1-.9-3.3-1.3-1.6-2.7-3.4-4.3-5.4-1.6.7-3.2,1.3-4.2,1.8-1.5,1.8-2.7,3.1-3.9,4.5v3.4c1.8.2,2.2-1,2.4-2.3h5.1c.4.5,1,1.2,1.9,2.3.3,2.5-.1,5-4,6.3h-3.5c-1.7-1.3-3.4-2.7-4.8-3.8-.5-1.6-.8-2.6-1.1-3.7,1.5-.4-.4-1.5.6-2.3.7-.6.8-2,1.4-3.7,2.3-2,5.1-4.4,8.1-7h1.7c.9,1.2,1.8,2.8,3.1,4,1.4,1.3.9,3.4,2.3,4.8.6-.4,1.2-.8,1.7-1.1.4-2.9-.7-6,1.3-8.5.4,0,.6,0,1.1.2v10.9c0,1,0,2.1,0,3.1,0,.8.4,1.5.4,2.3,0,1-.4,2-.4,3,0,1-.2,1.9.5,3,.5.8.1,2.2.2,3.4-2,.6,1,2.3-.6,3,.2,1.1.5,2.1.7,3.2"/>
    <path class="st0" d="M344.8,78.8c.2-.2.3-.4.3-.5,0-.6-.6-3.8-.7-4,.7-2.2.2-4.2.4-6-1-.8-1.8-1.5-2.5-2.1-1.6-.8-2.9,1.2-4.3.2v-3.2c.1,0,.2-.1.3-.2-.6-.3-1.1-.7-1.6-1.1-.5.3-1,.5-1.5.7.8,1.9.9,4.2.2,6.2.2,1,.3,2.1.2,3.2.7.3,1.4.6,1.9,1.1.2-.7.4-1.5.8-2,.6-.7,1.7-.8,2.7-1.2.3.3.6.6.9,1,0,2.6,1,5.1.7,7.8,0,.7,0,1.5,0,2.5.8.2,1.4.4,2,.6.4-.8.6-1.3.9-1.9-.2-.4-.4-.8-.6-1.1"/>
    <path class="st0" d="M335.6,79.1c0,.4,0,.9,0,1.5-1.9-.3-2.6-2-4-2.6v-1.3c1.1-1.1,2.3-2.3,3.8-3.8.2,1.9.4,3.3.6,5.1,0,0-.3.5-.4,1M339.6,84.1c-.4-.5-.7-1-1.1-1.6,1.2-.7-.2-1.8.4-2.8.3-.5-.3-1.5-.4-2.4.1-.1.3-.3.4-.4-.2-.6-.4-1.1-.4-1.6,0-.8.3-1.5.3-2.3,0-.9-.2-1.8-.3-2.8,0-.9,0-1.7,0-2.6s.2-1.3,0-1.7c-.4-.6,0-1.1,0-1.6,0-.3,0-.5.1-.7-1.3-.5-2.3-1.4-3-2.4.3,2-.1,4.1-1.2,5.8,0,.2,0,.5,0,.8-.6.8-.8,1.8-2.1,2.5-1.9,1.1-3.5,2.8-4.7,3.9-1.1.6-1.8.9-2.4,1.3-.2.2-.3.9,0,1.1,1,1.2,1.6,2.9,3.4,3.4,2.4.7,4.8,1.6,6.9,2.9,1.6,1,3.5,1.7,4.2,3.8,0,0,.3.1.4.2.3-.4.6-.7.8-1-.5-.7-.9-1.2-1.3-1.7"/>
    <path class="st0" d="M351.2,50.4c-1,.3-2.1.5-3.2.5s-.6,0-.8,0c-.1.3-.2.6-.3.9-.5-.3-.8-.6-1.3-1-.7.6-1.3,1.2-2,1.7-.5-.5-1-1-1.5-1.5h-5.8c-1.8,0-3.7,0-5.5,0-.8,0-1.7-.1-2.5-.2-.8.2-1.7.3-2.7.3s-1.9-.1-2.8-.3c-.4,0-.7.2-1.1.2-.8.2-1.6.3-2.5.3s-.1,0-.2,0c-.6,0-1.2.1-1.8.1s-.2,0-.3,0c-.1,0-.2,0-.3,0s-.2,0-.3,0,0,0-.1,0c-.7,0-1.4,0-2.1-.2-.2,0-.4,0-.6,0-.1,0-.3.1-.4.2.5,1.5.8,2.5,1.2,3.7h4.3c.3,1.3.8,2.5.8,3.7,0,3.8,0,7.6,1.6,11.2.1.2.1.5.2.7l.4-.4c.9.9,1.7,1.7,2.5,2.5,1-.8,2.6-1.5,3.1-2.7.7-1.5,2.4-1.9,3.2-3.3.5-.9,2.3-1.2,3.5-1.8.6,1.2,1,2,1.2,2.5-.3,1.2-.6,2-.8,2.6.4,0,.8,0,1.3,0s.3,0,.4,0c.7-.2,1.5-.4,2.2-.5-.5-2.1-.4-4.4.3-6.5-.2-.5-.3-1-.5-1.6-.4-.4-1-1-1.6-1.6-4.3-.7-7.6.3-9.3,4.5h-2.8c-.8-2,.6-4.3-1-6,.3-1.1.7-2.1,1.1-3.3h14.2l1.8-1.8c.3.7.5,1.5.6,1.6,1.4.1,2.1.2,2.8.2v1.9c1-.4,2.2-.7,3.4-.8.4-.2.7-.4,1.1-.5.2-.2.4-.5.5-.7h3c.1,0,.2,0,.3,0s0,0,0,0c0-1.4,0-2.9.4-4.2-.6,0-1.2-.1-1.7-.2"/>
    <rect class="st0" x="321.3" y="65.1" width=".3" height=".8"/>
    <rect class="st0" x="336.8" y="52.7" width=".8" height=".3"/>
    <path class="st0" d="M307.5,79.4c1-.3,1.8-.5,3-.9.2.5.9,1.3.8,2-.2,1-.8,2-1.5,2.9-.8,1.2-1.8,2.4-1.6,4.1,5.2,1.7,10.7,2.4,16.1,2.8.7.4,1.3.7,2.2,1.1-.4.6-.8,1.2-1.1,1.8-4.1.8-7.8-.7-11.6-1.7-.3,0-.6-.5-1-.5-3.3-.4-6.6-.7-10.2-1-.2-.5-.6-1.2-1-1.9,2-3,3.8-5.7,5.8-8.7"/>
  </g>
</svg>